<svg xmlns="http://www.w3.org/2000/svg" viewBox="0 0 960 336" width="960" height="336">
  <defs>
    <clipPath id="clip">
      <path d="M 4 16 C 4 9.37 9.37 4 16 4 L 268 4 C 278 4 282 14 288 9 C 294 14 298 4 308 4 L 325 4 C 332.15 4 334.75 19 338 12 C 341.25 19 343.85 4 351 4 L 944 4 C 950.63 4 956 9.37 956 16 L 956 296 C 956 314 938 304 936 312 C 928 314 938 332 920 332 L 40 332 C 22 332 32 314 24 312 C 22 304 4 314 4 296 Z"/>
    </clipPath>
  </defs>
  <g id="background">
    <path d="M 4 16 C 4 9.37 9.37 4 16 4 L 268 4 C 278 4 282 14 288 9 C 294 14 298 4 308 4 L 325 4 C 332.15 4 334.75 19 338 12 C 341.25 19 343.85 4 351 4 L 944 4 C 950.63 4 956 9.37 956 16 L 956 296 C 956 314 938 304 936 312 C 928 314 938 332 920 332 L 40 332 C 22 332 32 314 24 312 C 22 304 4 314 4 296 Z" fill="#F5EBCE"/>
  </g>
  <g id="outer_border">
    <path d="M 4 16 C 4 9.37 9.37 4 16 4 L 268 4 C 278 4 282 14 288 9 C 294 14 298 4 308 4 L 325 4 C 332.15 4 334.75 19 338 12 C 341.25 19 343.85 4 351 4 L 944 4 C 950.63 4 956 9.37 956 16 L 956 296 C 956 314 938 304 936 312 C 928 314 938 332 920 332 L 40 332 C 22 332 32 314 24 312 C 22 304 4 314 4 296 Z" fill="none" stroke="#DEBB7E" stroke-width="8" stroke-linejoin="round" stroke-linecap="round"/>
  </g>
  <g id="inner_dashed_border" clip-path="url(#clip)">
    <path d="M 30 47 C 30 41.48 34.48 37 40 37 L 920 37 C 925.52 37 930 41.48 930 47 L 930 298 C 930 303.52 925.52 308 920 308 L 40 308 C 34.48 308 30 303.52 30 298 Z" fill="none" stroke="#C4856A" stroke-width="6" stroke-dasharray="18,12" stroke-linejoin="round" stroke-linecap="round"/>
  </g>
</svg>