<svg xmlns="http://www.w3.org/2000/svg" viewBox="0 0 960 336" width="960" height="336">
  <defs>
    <clipPath id="clip">
      <path d="M 4 16 C 4 9.37 9.37 4 16 4 L 920 4 C 938 4 928 22 936 24 C 938 32 956 22 956 40 L 956 296 C 956 314 938 304 936 312 C 928 314 938 332 920 332 L 16 332 C 9.37 332 4 326.63 4 320 L 4 168.6 C 4 162.6 19 160.6 12 157.6 C 19 154.6 4 152.6 4 146.6 L 4 133.6 C 4 125.6 14 122.6 9 117.6 C 14 112.6 4 109.6 4 101.6 Z"/>
    </clipPath>
  </defs>
  <g id="background">
    <path d="M 4 16 C 4 9.37 9.37 4 16 4 L 920 4 C 938 4 928 22 936 24 C 938 32 956 22 956 40 L 956 296 C 956 314 938 304 936 312 C 928 314 938 332 920 332 L 16 332 C 9.37 332 4 326.63 4 320 L 4 168.6 C 4 162.6 19 160.6 12 157.6 C 19 154.6 4 152.6 4 146.6 L 4 133.6 C 4 125.6 14 122.6 9 117.6 C 14 112.6 4 109.6 4 101.6 Z" fill="#F5EBCE"/>
  </g>
  <g id="outer_border">
    <path d="M 4 16 C 4 9.37 9.37 4 16 4 L 920 4 C 938 4 928 22 936 24 C 938 32 956 22 956 40 L 956 296 C 956 314 938 304 936 312 C 928 314 938 332 920 332 L 16 332 C 9.37 332 4 326.63 4 320 L 4 168.6 C 4 162.6 19 160.6 12 157.6 C 19 154.6 4 152.6 4 146.6 L 4 133.6 C 4 125.6 14 122.6 9 117.6 C 14 112.6 4 109.6 4 101.6 Z" fill="none" stroke="#DEBB7E" stroke-width="8" stroke-linejoin="round" stroke-linecap="round"/>
  </g>
  <g id="inner_dashed_border" clip-path="url(#clip)">
    <path d="M 30 47 C 30 41.48 34.48 37 40 37 L 920 37 C 925.52 37 930 41.48 930 47 L 930 298 C 930 303.52 925.52 308 920 308 L 40 308 C 34.48 308 30 303.52 30 298 Z" fill="none" stroke="#C4856A" stroke-width="6" stroke-dasharray="18,12" stroke-linejoin="round" stroke-linecap="round"/>
  </g>
</svg>