<svg xmlns="http://www.w3.org/2000/svg" viewBox="0 0 960 336" width="960" height="336">
  <defs>
    <clipPath id="clip">
      <path d="M 4 16 C 4 9.37 9.37 4 16 4 L 460 4 C 470 4 474 14 480 9 C 486 14 490 4 500 4 L 517 4 C 524.15 4 526.75 19 530 12 C 533.25 19 535.85 4 543 4 L 920 4 C 938 4 928 22 936 24 C 938 32 956 22 956 40 L 956 320 C 956 326.63 950.63 332 944 332 L 40 332 C 22 332 32 314 24 312 C 22 304 4 314 4 296 Z"/>
    </clipPath>
  </defs>
  <g id="background">
    <path d="M 4 16 C 4 9.37 9.37 4 16 4 L 460 4 C 470 4 474 14 480 9 C 486 14 490 4 500 4 L 517 4 C 524.15 4 526.75 19 530 12 C 533.25 19 535.85 4 543 4 L 920 4 C 938 4 928 22 936 24 C 938 32 956 22 956 40 L 956 320 C 956 326.63 950.63 332 944 332 L 40 332 C 22 332 32 314 24 312 C 22 304 4 314 4 296 Z" fill="#F5EBCE"/>
  </g>
  <g id="outer_border">
    <path d="M 4 16 C 4 9.37 9.37 4 16 4 L 460 4 C 470 4 474 14 480 9 C 486 14 490 4 500 4 L 517 4 C 524.15 4 526.75 19 530 12 C 533.25 19 535.85 4 543 4 L 920 4 C 938 4 928 22 936 24 C 938 32 956 22 956 40 L 956 320 C 956 326.63 950.63 332 944 332 L 40 332 C 22 332 32 314 24 312 C 22 304 4 314 4 296 Z" fill="none" stroke="#DEBB7E" stroke-width="8" stroke-linejoin="round" stroke-linecap="round"/>
  </g>
  <g id="inner_dashed_border" clip-path="url(#clip)">
    <path d="M 30 47 C 30 41.48 34.48 37 40 37 L 920 37 C 925.52 37 930 41.48 930 47 L 930 298 C 930 303.52 925.52 308 920 308 L 40 308 C 34.48 308 30 303.52 30 298 Z" fill="none" stroke="#C4856A" stroke-width="6" stroke-dasharray="18,12" stroke-linejoin="round" stroke-linecap="round"/>
  </g>
</svg>