<svg xmlns="http://www.w3.org/2000/svg" viewBox="0 0 960 336" width="960" height="336">
  <defs>
    <clipPath id="clip">
      <path d="M 4 26 C 4 15 13 18 14 14 C 18 13 15 4 26 4 L 344.8 4 C 354.8 4 358.8 9 364.8 9 C 370.8 9 374.8 4 384.8 4 L 401.8 4 C 408.95 4 411.55 12 414.8 12 C 418.05 12 420.65 4 427.8 4 L 944 4 C 950.63 4 956 9.37 956 16 L 956 310 C 956 321 947 318 946 322 C 942 323 945 332 934 332 L 16 332 C 9.37 332 4 326.63 4 320 Z"/>
    </clipPath>
  </defs>
  <g id="background">
    <path d="M 4 26 C 4 15 13 18 14 14 C 18 13 15 4 26 4 L 344.8 4 C 354.8 4 358.8 9 364.8 9 C 370.8 9 374.8 4 384.8 4 L 401.8 4 C 408.95 4 411.55 12 414.8 12 C 418.05 12 420.65 4 427.8 4 L 944 4 C 950.63 4 956 9.37 956 16 L 956 310 C 956 321 947 318 946 322 C 942 323 945 332 934 332 L 16 332 C 9.37 332 4 326.63 4 320 Z" fill="#F5EBCE"/>
  </g>
  <g id="outer_border">
    <path d="M 4 26 C 4 15 13 18 14 14 C 18 13 15 4 26 4 L 344.8 4 C 354.8 4 358.8 9 364.8 9 C 370.8 9 374.8 4 384.8 4 L 401.8 4 C 408.95 4 411.55 12 414.8 12 C 418.05 12 420.65 4 427.8 4 L 944 4 C 950.63 4 956 9.37 956 16 L 956 310 C 956 321 947 318 946 322 C 942 323 945 332 934 332 L 16 332 C 9.37 332 4 326.63 4 320 Z" fill="none" stroke="#DEBB7E" stroke-width="8" stroke-linejoin="round" stroke-linecap="round"/>
  </g>
  <g id="inner_dashed_border" clip-path="url(#clip)">
    <path d="M 30 47 C 30 41.48 34.48 37 40 37 L 920 37 C 925.52 37 930 41.48 930 47 L 930 298 C 930 303.52 925.52 308 920 308 L 40 308 C 34.48 308 30 303.52 30 298 Z" fill="none" stroke="#C4856A" stroke-width="6" stroke-dasharray="18,12" stroke-linejoin="round" stroke-linecap="round"/>
  </g>
</svg>