<svg xmlns="http://www.w3.org/2000/svg" viewBox="0 0 960 336" width="960" height="336">
  <defs>
    <clipPath id="clip">
      <path d="M 4 40 C 4 22 22 32 24 24 C 32 22 22 4 40 4 L 920 4 C 938 4 928 22 936 24 C 938 32 956 22 956 40 L 956 320 C 956 326.63 950.63 332 944 332 L 495 332 C 487.85 332 485.25 317 482 324 C 478.75 317 476.15 332 469 332 L 452 332 C 442 332 438 322 432 327 C 426 322 422 332 412 332 L 16 332 C 9.37 332 4 326.63 4 320 Z"/>
    </clipPath>
  </defs>
  <g id="background">
    <path d="M 4 40 C 4 22 22 32 24 24 C 32 22 22 4 40 4 L 920 4 C 938 4 928 22 936 24 C 938 32 956 22 956 40 L 956 320 C 956 326.63 950.63 332 944 332 L 495 332 C 487.85 332 485.25 317 482 324 C 478.75 317 476.15 332 469 332 L 452 332 C 442 332 438 322 432 327 C 426 322 422 332 412 332 L 16 332 C 9.37 332 4 326.63 4 320 Z" fill="#F5EBCE"/>
  </g>
  <g id="outer_border">
    <path d="M 4 40 C 4 22 22 32 24 24 C 32 22 22 4 40 4 L 920 4 C 938 4 928 22 936 24 C 938 32 956 22 956 40 L 956 320 C 956 326.63 950.63 332 944 332 L 495 332 C 487.85 332 485.25 317 482 324 C 478.75 317 476.15 332 469 332 L 452 332 C 442 332 438 322 432 327 C 426 322 422 332 412 332 L 16 332 C 9.37 332 4 326.63 4 320 Z" fill="none" stroke="#DEBB7E" stroke-width="8" stroke-linejoin="round" stroke-linecap="round"/>
  </g>
  <g id="inner_dashed_border" clip-path="url(#clip)">
    <path d="M 30 47 C 30 41.48 34.48 37 40 37 L 920 37 C 925.52 37 930 41.48 930 47 L 930 298 C 930 303.52 925.52 308 920 308 L 40 308 C 34.48 308 30 303.52 30 298 Z" fill="none" stroke="#C4856A" stroke-width="6" stroke-dasharray="18,12" stroke-linejoin="round" stroke-linecap="round"/>
  </g>
</svg>