<svg xmlns="http://www.w3.org/2000/svg" viewBox="0 0 960 336" width="960" height="336">
  <g id="background">
    <path d="M 4 16 C 4 9.37 9.37 4 16 4 L 944 4 C 950.63 4 956 9.37 956 16 L 956 320 C 956 326.63 950.63 332 944 332 L 16 332 C 9.37 332 4 326.63 4 320 Z" fill="#F0D5CC"/>
  </g>
  <g id="outer_border">
    <path d="M 4 16 C 4 9.37 9.37 4 16 4 L 944 4 C 950.63 4 956 9.37 956 16 L 956 320 C 956 326.63 950.63 332 944 332 L 16 332 C 9.37 332 4 326.63 4 320 Z" fill="none" stroke="#C4867A" stroke-width="8" stroke-linejoin="round" stroke-linecap="round"/>
  </g>
  <g id="inner_dashed_border">
    <path d="M 30 47 C 30 41.48 34.48 37 40 37 L 920 37 C 925.52 37 930 41.48 930 47 L 930 298 C 930 303.52 925.52 308 920 308 L 40 308 C 34.48 308 30 303.52 30 298 Z" fill="none" stroke="#A85A4A" stroke-width="6" stroke-dasharray="18,12" stroke-linejoin="round" stroke-linecap="round"/>
  </g>
</svg>
