<svg xmlns="http://www.w3.org/2000/svg" viewBox="0 0 960 336" width="960" height="336">
  <defs><clipPath id="clip_5"><path d="M 18 5.5 C 27.9 7.1 23.9 9.2 37.7 9.5 C 51.4 9.7 43.6 6.6 57.3 6.2 C 71.1 5.7 63.2 8.5 77 8.1 C 90.7 7.7 82.9 5 96.6 5 C 110.4 5.6 102.5 9.8 116.3 9.8 C 130.1 9.8 122.2 5.2 136 5 C 149.7 5 141.9 7 155.6 9.1 C 169.4 11.2 161.5 11.6 175.3 11 C 189 10.4 181.2 9.1 194.9 7.3 C 208.7 5.6 200.8 5.4 214.6 6.1 C 228.4 6.8 220.5 9.7 234.3 9.3 C 248 8.9 240.2 6.3 253.9 5 C 267.7 5 259.8 5.5 273.6 5.5 C 287.3 5.5 279.5 5.2 293.2 5 C 307 5 299.1 5 312.9 5 C 326.7 6.7 318.8 9.8 332.6 9.8 C 346.3 9.8 338.5 5.1 352.2 5 C 366 5 358.1 8.6 371.9 9.5 C 385.6 10.4 377.8 6.1 391.5 7.5 C 405.3 8.9 397.4 13.4 411.2 13.5 C 425 13.6 417.1 6.2 430.9 7.8 C 444.6 9.3 436.7 11.5 450.5 18 C 464.3 24.4 456.4 30.8 470.2 26.3 C 483.9 21.7 476.1 11.2 489.8 5 C 503.6 5 495.7 5 509.5 8.6 C 523.3 13 515.4 18.1 529.1 17.6 C 542.9 17 535 11 548.8 7 C 562.6 5 554.7 6.7 568.5 6.3 C 582.2 5.8 574.4 5 588.1 5.7 C 601.9 7.6 594 11.3 607.8 11.8 C 621.5 12.3 613.7 9.4 627.4 7 C 641.2 5 633.3 5.7 647.1 5 C 660.9 5 653 5 666.8 5 C 680.5 6.3 672.7 8.7 686.4 8.7 C 700.2 8.7 692.3 6.3 706.1 5 C 719.8 5 712 5 725.7 5 C 739.5 5.7 731.6 6.9 745.4 6.9 C 759.2 6.9 751.3 5 765.1 5 C 778.8 5 771 6.8 784.7 6.8 C 798.5 6.8 790.6 5.2 804.4 5 C 818.1 5 810.3 5.4 824 6.2 C 837.8 7 829.9 6.4 843.7 7.2 C 857.5 8.1 849.6 7.8 863.4 8.6 C 877.1 9.4 869.3 9.5 883 9.4 C 896.8 9.4 888.9 7.4 902.7 8.5 C 916.4 9.6 908.6 12.9 922.3 12.6 C 936.1 12.4 937.8 10.5 942 7.8 C 946.2 5.1 935.4 5 934.5 5 C 933.6 7.7 936 15.4 939.4 15.4 C 942.8 15.4 939.4 5 944.2 5 C 949 5.9 950.4 6.5 953.1 18 C 955 29.5 952.1 24 951.9 38 C 951.8 52 951.6 44 952.7 58 C 953.7 72 954.2 64 955 78 C 955 92 955 84 955 98 C 953.5 112 952.2 104 950.7 118 C 949.2 132 949.3 124 950.8 138 C 952.3 152 953.5 144 955 158 C 955 172 955 164 955 178 C 952.2 192 947.5 184 947 198 C 946.5 212 951.2 204 953.6 218 C 955 232 953.8 224 953.8 238 C 953.9 252 953.5 244 953.9 258 C 954.3 272 954.6 264 955 278 C 955 292 955 284 955 298 C 955 312 955 314 955 318 C 953.7 322 954.5 304.8 951.4 309.3 C 948.2 313.9 955 323.4 945.9 331 C 932.9 331 915.7 331 914.3 331 C 913 331 939.2 331 942 331 C 944.8 330.4 936.1 331 922.3 329.4 C 908.6 326.6 916.4 323.8 902.7 323.1 C 888.9 322.5 896.8 325.1 883 327.6 C 869.3 330.1 877.1 329.1 863.4 330.3 C 849.6 331 857.5 331 843.7 331 C 829.9 330.8 837.8 330.3 824 329.6 C 810.3 328.8 818.1 329.5 804.4 328.8 C 790.6 328.2 798.5 328.5 784.7 327.8 C 771 327.1 778.8 327.2 765.1 326.8 C 751.3 326.5 759.2 326.9 745.4 326.7 C 731.6 326.6 739.5 325.2 725.7 326.3 C 712 327.5 719.8 331 706.1 329.9 C 692.3 328.8 700.2 324.2 686.4 323 C 672.7 321.8 680.5 324.2 666.8 326.5 C 653 328.8 660.9 329.1 647.1 329.5 C 633.3 330 641.2 327.4 627.4 327.9 C 613.7 328.4 621.5 329.9 607.8 331 C 594 331 601.9 331 588.1 331 C 574.4 331 582.2 331 568.5 331 C 554.7 329.7 562.6 327.8 548.8 327.3 C 535 326.8 542.9 328.3 529.1 329.6 C 515.4 330.9 523.3 330.7 509.5 331 C 495.7 331 503.6 330.4 489.8 330.4 C 476.1 330.4 483.9 331 470.2 331 C 456.4 328.4 464.3 324.2 450.5 323 C 436.7 321.8 444.6 325.4 430.9 327.5 C 417.1 329.6 425 329.3 411.2 329 C 397.4 328.7 405.3 326 391.5 326.7 C 377.8 327.4 385.6 329.5 371.9 331 C 358.1 331 366 331 352.2 331 C 338.5 328.2 346.3 323.3 332.6 323 C 318.8 322.7 326.7 327.3 312.9 330.1 C 299.1 331 307 331 293.2 331 C 279.5 330.3 287.3 328.1 273.6 327.9 C 259.8 327.8 267.7 329.4 253.9 330.5 C 240.2 331 248 331 234.3 331 C 220.5 328.4 228.4 323.7 214.6 323 C 200.8 322.3 208.7 327.1 194.9 328.9 C 181.2 330.8 189 329 175.3 328.3 C 161.5 327.5 169.4 328.6 155.6 326.7 C 141.9 324.9 149.7 322.1 136 323 C 122.2 323.9 130.1 326.5 116.3 329.3 C 102.5 331 110.4 330.4 96.6 331 C 82.9 331 90.7 331 77 331 C 63.2 331 71.1 331 57.3 331 C 43.6 331 51.4 331 37.7 331 C 23.9 331 25.1 331 18 331 C 10.9 331 14.7 331 17.2 331 C 19.7 318.8 15 297.5 25.1 296.3 C 35.3 295.1 53.3 320 46.3 327.6 C 39.3 331 18.6 328.4 5.1 318 C 5 307.6 6.4 312 7.8 298 C 9.2 284 9 292 9.1 278 C 9.1 264 8.8 272 8 258 C 7.1 244 7.6 252 6.5 238 C 5.5 224 5 232 5 218 C 5.2 204 7.2 212 7.2 198 C 7.2 184 5 192 5 178 C 5 164 7.1 172 7.1 158 C 7.1 144 5 152 5 138 C 5.8 124 9.1 132 9.5 118 C 9.9 104 6.4 112 6.2 98 C 6.1 84 8.5 92 9.1 78 C 9.6 64 8.2 72 7.8 58 C 7.3 44 8.1 52 7.8 38 C 7.5 24 5 21.7 6.9 18 C 10.2 14.3 12.5 32 17.2 27.5 C 22 22.9 23.2 12.9 20.5 5 C 17.8 5 10.3 5 9.4 5 C 8.6 5.2 8.1 5 18 5.5 Z"/></clipPath></defs>
  <g id="background"><path d="M 18 5.5 C 27.9 7.1 23.9 9.2 37.7 9.5 C 51.4 9.7 43.6 6.6 57.3 6.2 C 71.1 5.7 63.2 8.5 77 8.1 C 90.7 7.7 82.9 5 96.6 5 C 110.4 5.6 102.5 9.8 116.3 9.8 C 130.1 9.8 122.2 5.2 136 5 C 149.7 5 141.9 7 155.6 9.1 C 169.4 11.2 161.5 11.6 175.3 11 C 189 10.4 181.2 9.1 194.9 7.3 C 208.7 5.6 200.8 5.4 214.6 6.1 C 228.4 6.8 220.5 9.7 234.3 9.3 C 248 8.9 240.2 6.3 253.9 5 C 267.7 5 259.8 5.5 273.6 5.5 C 287.3 5.5 279.5 5.2 293.2 5 C 307 5 299.1 5 312.9 5 C 326.7 6.7 318.8 9.8 332.6 9.8 C 346.3 9.8 338.5 5.1 352.2 5 C 366 5 358.1 8.6 371.9 9.5 C 385.6 10.4 377.8 6.1 391.5 7.5 C 405.3 8.9 397.4 13.4 411.2 13.5 C 425 13.6 417.1 6.2 430.9 7.8 C 444.6 9.3 436.7 11.5 450.5 18 C 464.3 24.4 456.4 30.8 470.2 26.3 C 483.9 21.7 476.1 11.2 489.8 5 C 503.6 5 495.7 5 509.5 8.6 C 523.3 13 515.4 18.1 529.1 17.6 C 542.9 17 535 11 548.8 7 C 562.6 5 554.7 6.7 568.5 6.3 C 582.2 5.8 574.4 5 588.1 5.7 C 601.9 7.6 594 11.3 607.8 11.8 C 621.5 12.3 613.7 9.4 627.4 7 C 641.2 5 633.3 5.7 647.1 5 C 660.9 5 653 5 666.8 5 C 680.5 6.3 672.7 8.7 686.4 8.7 C 700.2 8.7 692.3 6.3 706.1 5 C 719.8 5 712 5 725.7 5 C 739.5 5.7 731.6 6.9 745.4 6.9 C 759.2 6.9 751.3 5 765.1 5 C 778.8 5 771 6.8 784.7 6.8 C 798.5 6.8 790.6 5.2 804.4 5 C 818.1 5 810.3 5.4 824 6.2 C 837.8 7 829.9 6.4 843.7 7.2 C 857.5 8.1 849.6 7.8 863.4 8.6 C 877.1 9.4 869.3 9.5 883 9.4 C 896.8 9.4 888.9 7.4 902.7 8.5 C 916.4 9.6 908.6 12.9 922.3 12.6 C 936.1 12.4 937.8 10.5 942 7.8 C 946.2 5.1 935.4 5 934.5 5 C 933.6 7.7 936 15.4 939.4 15.4 C 942.8 15.4 939.4 5 944.2 5 C 949 5.9 950.4 6.5 953.1 18 C 955 29.5 952.1 24 951.9 38 C 951.8 52 951.6 44 952.7 58 C 953.7 72 954.2 64 955 78 C 955 92 955 84 955 98 C 953.5 112 952.2 104 950.7 118 C 949.2 132 949.3 124 950.8 138 C 952.3 152 953.5 144 955 158 C 955 172 955 164 955 178 C 952.2 192 947.5 184 947 198 C 946.5 212 951.2 204 953.6 218 C 955 232 953.8 224 953.8 238 C 953.9 252 953.5 244 953.9 258 C 954.3 272 954.6 264 955 278 C 955 292 955 284 955 298 C 955 312 955 314 955 318 C 953.7 322 954.5 304.8 951.4 309.3 C 948.2 313.9 955 323.4 945.9 331 C 932.9 331 915.7 331 914.3 331 C 913 331 939.2 331 942 331 C 944.8 330.4 936.1 331 922.3 329.4 C 908.6 326.6 916.4 323.8 902.7 323.1 C 888.9 322.5 896.8 325.1 883 327.6 C 869.3 330.1 877.1 329.1 863.4 330.3 C 849.6 331 857.5 331 843.7 331 C 829.9 330.8 837.8 330.3 824 329.6 C 810.3 328.8 818.1 329.5 804.4 328.8 C 790.6 328.2 798.5 328.5 784.7 327.8 C 771 327.1 778.8 327.2 765.1 326.8 C 751.3 326.5 759.2 326.9 745.4 326.7 C 731.6 326.6 739.5 325.2 725.7 326.3 C 712 327.5 719.8 331 706.1 329.9 C 692.3 328.8 700.2 324.2 686.4 323 C 672.7 321.8 680.5 324.2 666.8 326.5 C 653 328.8 660.9 329.1 647.1 329.5 C 633.3 330 641.2 327.4 627.4 327.9 C 613.7 328.4 621.5 329.9 607.8 331 C 594 331 601.9 331 588.1 331 C 574.4 331 582.2 331 568.5 331 C 554.7 329.7 562.6 327.8 548.8 327.3 C 535 326.8 542.9 328.3 529.1 329.6 C 515.4 330.9 523.3 330.7 509.5 331 C 495.7 331 503.6 330.4 489.8 330.4 C 476.1 330.4 483.9 331 470.2 331 C 456.4 328.4 464.3 324.2 450.5 323 C 436.7 321.8 444.6 325.4 430.9 327.5 C 417.1 329.6 425 329.3 411.2 329 C 397.4 328.7 405.3 326 391.5 326.7 C 377.8 327.4 385.6 329.5 371.9 331 C 358.1 331 366 331 352.2 331 C 338.5 328.2 346.3 323.3 332.6 323 C 318.8 322.7 326.7 327.3 312.9 330.1 C 299.1 331 307 331 293.2 331 C 279.5 330.3 287.3 328.1 273.6 327.9 C 259.8 327.8 267.7 329.4 253.9 330.5 C 240.2 331 248 331 234.3 331 C 220.5 328.4 228.4 323.7 214.6 323 C 200.8 322.3 208.7 327.1 194.9 328.9 C 181.2 330.8 189 329 175.3 328.3 C 161.5 327.5 169.4 328.6 155.6 326.7 C 141.9 324.9 149.7 322.1 136 323 C 122.2 323.9 130.1 326.5 116.3 329.3 C 102.5 331 110.4 330.4 96.6 331 C 82.9 331 90.7 331 77 331 C 63.2 331 71.1 331 57.3 331 C 43.6 331 51.4 331 37.7 331 C 23.9 331 25.1 331 18 331 C 10.9 331 14.7 331 17.2 331 C 19.7 318.8 15 297.5 25.1 296.3 C 35.3 295.1 53.3 320 46.3 327.6 C 39.3 331 18.6 328.4 5.1 318 C 5 307.6 6.4 312 7.8 298 C 9.2 284 9 292 9.1 278 C 9.1 264 8.8 272 8 258 C 7.1 244 7.6 252 6.5 238 C 5.5 224 5 232 5 218 C 5.2 204 7.2 212 7.2 198 C 7.2 184 5 192 5 178 C 5 164 7.1 172 7.1 158 C 7.1 144 5 152 5 138 C 5.8 124 9.1 132 9.5 118 C 9.9 104 6.4 112 6.2 98 C 6.1 84 8.5 92 9.1 78 C 9.6 64 8.2 72 7.8 58 C 7.3 44 8.1 52 7.8 38 C 7.5 24 5 21.7 6.9 18 C 10.2 14.3 12.5 32 17.2 27.5 C 22 22.9 23.2 12.9 20.5 5 C 17.8 5 10.3 5 9.4 5 C 8.6 5.2 8.1 5 18 5.5 Z" fill="#F0E4C8"/></g>
  <g id="outer_border"><path d="M 18 5.5 C 27.9 7.1 23.9 9.2 37.7 9.5 C 51.4 9.7 43.6 6.6 57.3 6.2 C 71.1 5.7 63.2 8.5 77 8.1 C 90.7 7.7 82.9 5 96.6 5 C 110.4 5.6 102.5 9.8 116.3 9.8 C 130.1 9.8 122.2 5.2 136 5 C 149.7 5 141.9 7 155.6 9.1 C 169.4 11.2 161.5 11.6 175.3 11 C 189 10.4 181.2 9.1 194.9 7.3 C 208.7 5.6 200.8 5.4 214.6 6.1 C 228.4 6.8 220.5 9.7 234.3 9.3 C 248 8.9 240.2 6.3 253.9 5 C 267.7 5 259.8 5.5 273.6 5.5 C 287.3 5.5 279.5 5.2 293.2 5 C 307 5 299.1 5 312.9 5 C 326.7 6.7 318.8 9.8 332.6 9.8 C 346.3 9.8 338.5 5.1 352.2 5 C 366 5 358.1 8.6 371.9 9.5 C 385.6 10.4 377.8 6.1 391.5 7.5 C 405.3 8.9 397.4 13.4 411.2 13.5 C 425 13.6 417.1 6.2 430.9 7.8 C 444.6 9.3 436.7 11.5 450.5 18 C 464.3 24.4 456.4 30.8 470.2 26.3 C 483.9 21.7 476.1 11.2 489.8 5 C 503.6 5 495.7 5 509.5 8.6 C 523.3 13 515.4 18.1 529.1 17.6 C 542.9 17 535 11 548.8 7 C 562.6 5 554.7 6.7 568.5 6.3 C 582.2 5.8 574.4 5 588.1 5.7 C 601.9 7.6 594 11.3 607.8 11.8 C 621.5 12.3 613.7 9.4 627.4 7 C 641.2 5 633.3 5.7 647.1 5 C 660.9 5 653 5 666.8 5 C 680.5 6.3 672.7 8.7 686.4 8.7 C 700.2 8.7 692.3 6.3 706.1 5 C 719.8 5 712 5 725.7 5 C 739.5 5.7 731.6 6.9 745.4 6.9 C 759.2 6.9 751.3 5 765.1 5 C 778.8 5 771 6.8 784.7 6.8 C 798.5 6.8 790.6 5.2 804.4 5 C 818.1 5 810.3 5.4 824 6.2 C 837.8 7 829.9 6.4 843.7 7.2 C 857.5 8.1 849.6 7.8 863.4 8.6 C 877.1 9.4 869.3 9.5 883 9.4 C 896.8 9.4 888.9 7.4 902.7 8.5 C 916.4 9.6 908.6 12.9 922.3 12.6 C 936.1 12.4 937.8 10.5 942 7.8 C 946.2 5.1 935.4 5 934.5 5 C 933.6 7.7 936 15.4 939.4 15.4 C 942.8 15.4 939.4 5 944.2 5 C 949 5.9 950.4 6.5 953.1 18 C 955 29.5 952.1 24 951.9 38 C 951.8 52 951.6 44 952.7 58 C 953.7 72 954.2 64 955 78 C 955 92 955 84 955 98 C 953.5 112 952.2 104 950.7 118 C 949.2 132 949.3 124 950.8 138 C 952.3 152 953.5 144 955 158 C 955 172 955 164 955 178 C 952.2 192 947.5 184 947 198 C 946.5 212 951.2 204 953.6 218 C 955 232 953.8 224 953.8 238 C 953.9 252 953.5 244 953.9 258 C 954.3 272 954.6 264 955 278 C 955 292 955 284 955 298 C 955 312 955 314 955 318 C 953.7 322 954.5 304.8 951.4 309.3 C 948.2 313.9 955 323.4 945.9 331 C 932.9 331 915.7 331 914.3 331 C 913 331 939.2 331 942 331 C 944.8 330.4 936.1 331 922.3 329.4 C 908.6 326.6 916.4 323.8 902.7 323.1 C 888.9 322.5 896.8 325.1 883 327.6 C 869.3 330.1 877.1 329.1 863.4 330.3 C 849.6 331 857.5 331 843.7 331 C 829.9 330.8 837.8 330.3 824 329.6 C 810.3 328.8 818.1 329.5 804.4 328.8 C 790.6 328.2 798.5 328.5 784.7 327.8 C 771 327.1 778.8 327.2 765.1 326.8 C 751.3 326.5 759.2 326.9 745.4 326.7 C 731.6 326.6 739.5 325.2 725.7 326.3 C 712 327.5 719.8 331 706.1 329.9 C 692.3 328.8 700.2 324.2 686.4 323 C 672.7 321.8 680.5 324.2 666.8 326.5 C 653 328.8 660.9 329.1 647.1 329.5 C 633.3 330 641.2 327.4 627.4 327.9 C 613.7 328.4 621.5 329.9 607.8 331 C 594 331 601.9 331 588.1 331 C 574.4 331 582.2 331 568.5 331 C 554.7 329.7 562.6 327.8 548.8 327.3 C 535 326.8 542.9 328.3 529.1 329.6 C 515.4 330.9 523.3 330.7 509.5 331 C 495.7 331 503.6 330.4 489.8 330.4 C 476.1 330.4 483.9 331 470.2 331 C 456.4 328.4 464.3 324.2 450.5 323 C 436.7 321.8 444.6 325.4 430.9 327.5 C 417.1 329.6 425 329.3 411.2 329 C 397.4 328.7 405.3 326 391.5 326.7 C 377.8 327.4 385.6 329.5 371.9 331 C 358.1 331 366 331 352.2 331 C 338.5 328.2 346.3 323.3 332.6 323 C 318.8 322.7 326.7 327.3 312.9 330.1 C 299.1 331 307 331 293.2 331 C 279.5 330.3 287.3 328.1 273.6 327.9 C 259.8 327.8 267.7 329.4 253.9 330.5 C 240.2 331 248 331 234.3 331 C 220.5 328.4 228.4 323.7 214.6 323 C 200.8 322.3 208.7 327.1 194.9 328.9 C 181.2 330.8 189 329 175.3 328.3 C 161.5 327.5 169.4 328.6 155.6 326.7 C 141.9 324.9 149.7 322.1 136 323 C 122.2 323.9 130.1 326.5 116.3 329.3 C 102.5 331 110.4 330.4 96.6 331 C 82.9 331 90.7 331 77 331 C 63.2 331 71.1 331 57.3 331 C 43.6 331 51.4 331 37.7 331 C 23.9 331 25.1 331 18 331 C 10.9 331 14.7 331 17.2 331 C 19.7 318.8 15 297.5 25.1 296.3 C 35.3 295.1 53.3 320 46.3 327.6 C 39.3 331 18.6 328.4 5.1 318 C 5 307.6 6.4 312 7.8 298 C 9.2 284 9 292 9.1 278 C 9.1 264 8.8 272 8 258 C 7.1 244 7.6 252 6.5 238 C 5.5 224 5 232 5 218 C 5.2 204 7.2 212 7.2 198 C 7.2 184 5 192 5 178 C 5 164 7.1 172 7.1 158 C 7.1 144 5 152 5 138 C 5.8 124 9.1 132 9.5 118 C 9.9 104 6.4 112 6.2 98 C 6.1 84 8.5 92 9.1 78 C 9.6 64 8.2 72 7.8 58 C 7.3 44 8.1 52 7.8 38 C 7.5 24 5 21.7 6.9 18 C 10.2 14.3 12.5 32 17.2 27.5 C 22 22.9 23.2 12.9 20.5 5 C 17.8 5 10.3 5 9.4 5 C 8.6 5.2 8.1 5 18 5.5 Z" fill="none" stroke="#D4AD6A" stroke-width="8" stroke-linejoin="round" stroke-linecap="round"/></g>
  <g id="inner_dashed_border" clip-path="url(#clip_5)"><path d="M 30 47 C 30 41.5 34.5 37 40 37 L 920 37 C 925.5 37 930 41.5 930 47 L 930 298 C 930 303.5 925.5 308 920 308 L 40 308 C 34.5 308 30 303.5 30 298 Z" fill="none" stroke="#B05A3A" stroke-width="6" stroke-dasharray="18,12" stroke-linejoin="round" stroke-linecap="round"/></g>
</svg>