<svg xmlns="http://www.w3.org/2000/svg" viewBox="0 0 960 336" width="960" height="336">
  <defs><clipPath id="clip_2"><path d="M 18 13.9 C 29.4 15 23.9 11 37.7 8.1 C 51.4 5.2 43.6 6.6 57.3 5.5 C 71.1 5 63.2 5.2 77 5 C 90.7 5 82.9 5 96.6 5 C 110.4 6.1 102.5 7.9 116.3 8.1 C 130.1 8.2 122.2 5.6 136 5.4 C 149.7 5.3 141.9 5.4 155.6 7.8 C 169.4 10.2 161.5 11.6 175.3 12.3 C 189 12.9 181.2 9.6 194.9 9.6 C 208.7 9.6 200.8 13.9 214.6 12.2 C 228.4 10.6 220.5 6 234.3 5 C 248 5 240.2 8.3 253.9 9.5 C 267.7 10.7 259.8 10.1 273.6 8.5 C 287.3 6.9 279.5 6.2 293.2 5 C 307 5 299.1 5 312.9 5 C 326.7 5 318.8 5 332.6 5 C 346.3 5.9 338.5 7.6 352.2 7.6 C 366 7.6 358.1 5 371.9 5 C 385.6 5.2 377.8 6.5 391.5 8.2 C 405.3 9.9 397.4 9.4 411.2 9.9 C 425 10.4 417.1 9.6 430.9 9.7 C 444.6 9.8 436.7 11.8 450.5 10.2 C 464.3 8.5 456.4 5.2 470.2 5 C 483.9 5 476.1 9.7 489.8 9.7 C 503.6 9.7 495.7 5.4 509.5 5 C 523.3 5 515.4 8.6 529.1 8.6 C 542.9 8.6 535 6.3 548.8 5 C 562.6 5 554.7 5 568.5 5 C 582.2 5 574.4 5 588.1 5 C 601.9 5 594 5 607.8 5 C 621.5 8.9 613.7 14.9 627.4 16.2 C 641.2 17.6 633.3 11.6 647.1 8.9 C 660.9 6.1 653 8.3 666.8 8.4 C 680.5 8.6 672.7 10.4 686.4 9.2 C 700.2 8 692.3 5.6 706.1 5 C 719.8 5 712 7.4 725.7 7.4 C 739.5 7.4 731.6 5 745.4 5 C 759.2 5.2 751.3 8.1 765.1 8.1 C 778.8 8.1 771 6.1 784.7 5 C 798.5 5 790.6 5 804.4 5 C 818.1 5 810.3 5 824 5 C 837.8 5 829.9 5 843.7 5 C 857.5 6.6 849.6 9.6 863.4 9.6 C 877.1 9.6 869.3 5 883 5 C 896.8 5.8 888.9 9.2 902.7 11.9 C 916.4 14.7 908.6 14.3 922.3 13 C 936.1 11.6 930.6 8.5 942 8 C 953.4 7.4 953.2 9.3 955 11.3 C 955 13.3 947 10.5 947 13.7 C 947 16.9 952.6 19 955 20.5 C 955 22 954.3 11.9 953.8 18 C 953.3 24.1 954.4 24 953.7 38 C 952.9 52 951.7 44 951.7 58 C 951.6 72 953.3 64 953.6 78 C 954 92 952.1 84 952.6 98 C 953.1 112 955 104 955 118 C 954.2 132 950.3 124 950.3 138 C 950.3 152 953.3 144 955 158 C 955 172 955 164 955 178 C 954.5 192 953.6 184 953.6 198 C 953.6 212 955 204 955 218 C 954.5 232 952.1 224 952.1 238 C 952.1 252 955 244 955 258 C 954.4 272 951.1 264 950.4 278 C 949.7 292 952.1 284 952.9 298 C 953.8 312 955 308.5 952.8 318 C 949.5 327.5 947.6 320.6 943.5 325.2 C 939.3 329.7 937.3 331 941 331 C 944.7 330.8 953.7 324.5 954 324.5 C 954.4 324.5 953.1 329.5 942 331 C 930.9 331 936.1 329.3 922.3 328.7 C 908.6 328 916.4 329.4 902.7 329.1 C 888.9 328.8 896.8 327.5 883 327.9 C 869.3 328.2 877.1 329 863.4 330.1 C 849.6 331 857.5 330.7 843.7 331 C 829.9 331 837.8 331 824 331 C 810.3 331 818.1 331 804.4 331 C 790.6 330.3 798.5 330.7 784.7 329.1 C 771 327.5 778.8 326.6 765.1 326.5 C 751.3 326.5 759.2 328.4 745.4 329 C 731.6 329.5 739.5 327.5 725.7 328.2 C 712 328.9 719.8 330.1 706.1 331 C 692.3 331 700.2 331 686.4 330.8 C 672.7 329.4 680.5 326.8 666.8 326.9 C 653 326.9 660.9 330.8 647.1 331 C 633.3 331 641.2 327.3 627.4 327.3 C 613.7 327.3 621.5 330.2 607.8 331 C 594 331 601.9 331 588.1 329.5 C 574.4 328 582.2 327.5 568.5 326.5 C 554.7 325.6 562.6 325.3 548.8 326.9 C 535 328.4 542.9 329.6 529.1 331 C 515.4 331 523.3 331 509.5 331 C 495.7 331 503.6 331 489.8 331 C 476.1 328.2 483.9 324.3 470.2 323 C 456.4 321.7 464.3 325.4 450.5 327.4 C 436.7 329.3 444.6 327.7 430.9 328.5 C 417.1 329.3 425 328.7 411.2 329.6 C 397.4 330.5 405.3 330.5 391.5 331 C 377.8 331 385.6 331 371.9 331 C 358.1 330.7 366 330.2 352.2 330.2 C 338.5 330.2 346.3 331 332.6 331 C 318.8 330.9 326.7 330.7 312.9 330 C 299.1 329.2 307 331 293.2 328.9 C 279.5 326.4 287.3 323.4 273.6 323 C 259.8 322.6 267.7 324.8 253.9 327.6 C 240.2 330.4 248 330 234.3 331 C 220.5 331 228.4 330.5 214.6 330.5 C 200.8 330.5 208.7 331 194.9 331 C 181.2 330.3 189 328.4 175.3 328.4 C 161.5 328.4 169.4 330.7 155.6 331 C 141.9 331 149.7 329.3 136 329.3 C 122.2 329.3 130.1 331 116.3 331 C 102.5 330.3 110.4 329.3 96.6 327.3 C 82.9 325.2 90.7 325.4 77 325.1 C 63.2 324.9 71.1 326.2 57.3 326.7 C 43.6 327.2 51.4 325.1 37.7 326.6 C 23.9 328.1 13.7 331 18 331 C 22.3 325.8 42.4 311.6 49.9 311.6 C 57.3 311.6 48 328.6 39.2 331 C 30.3 331 36.4 322.9 24.5 318.4 C 12.6 313.8 11.6 325.1 5.1 318 C 5 310.9 5.9 312 5.9 298 C 5.8 284 5 292 5 278 C 5.9 264 7.7 272 8.4 258 C 9.1 244 7.2 252 7 238 C 6.7 224 8.5 232 7.8 218 C 7.1 204 6 212 5 198 C 5 184 5 192 5 178 C 6.5 164 9.2 172 9.2 158 C 9.2 144 6.5 152 5 138 C 5 124 5 132 5 118 C 7.8 104 12.9 112 13 98 C 13.1 84 6.5 92 5.2 78 C 5 64 8.1 72 9.1 58 C 10.1 44 7.2 52 8.1 38 C 9 24 12.9 18.2 11.8 18 C 10.7 17.8 5 35.2 5 37.6 C 7.4 39.9 18.7 36.1 18.7 24.7 C 18.8 13.3 5.4 8.8 5.1 5 C 5 5 6.6 12.8 18 13.9 Z"/></clipPath></defs>
  <g id="background"><path d="M 18 13.9 C 29.4 15 23.9 11 37.7 8.1 C 51.4 5.2 43.6 6.6 57.3 5.5 C 71.1 5 63.2 5.2 77 5 C 90.7 5 82.9 5 96.6 5 C 110.4 6.1 102.5 7.9 116.3 8.1 C 130.1 8.2 122.2 5.6 136 5.4 C 149.7 5.3 141.9 5.4 155.6 7.8 C 169.4 10.2 161.5 11.6 175.3 12.3 C 189 12.9 181.2 9.6 194.9 9.6 C 208.7 9.6 200.8 13.9 214.6 12.2 C 228.4 10.6 220.5 6 234.3 5 C 248 5 240.2 8.3 253.9 9.5 C 267.7 10.7 259.8 10.1 273.6 8.5 C 287.3 6.9 279.5 6.2 293.2 5 C 307 5 299.1 5 312.9 5 C 326.7 5 318.8 5 332.6 5 C 346.3 5.9 338.5 7.6 352.2 7.6 C 366 7.6 358.1 5 371.9 5 C 385.6 5.2 377.8 6.5 391.5 8.2 C 405.3 9.9 397.4 9.4 411.2 9.9 C 425 10.4 417.1 9.6 430.9 9.7 C 444.6 9.8 436.7 11.8 450.5 10.2 C 464.3 8.5 456.4 5.2 470.2 5 C 483.9 5 476.1 9.7 489.8 9.7 C 503.6 9.7 495.7 5.4 509.5 5 C 523.3 5 515.4 8.6 529.1 8.6 C 542.9 8.6 535 6.3 548.8 5 C 562.6 5 554.7 5 568.5 5 C 582.2 5 574.4 5 588.1 5 C 601.9 5 594 5 607.8 5 C 621.5 8.9 613.7 14.9 627.4 16.2 C 641.2 17.6 633.3 11.6 647.1 8.9 C 660.9 6.1 653 8.3 666.8 8.4 C 680.5 8.6 672.7 10.4 686.4 9.2 C 700.2 8 692.3 5.6 706.1 5 C 719.8 5 712 7.4 725.7 7.4 C 739.5 7.4 731.6 5 745.4 5 C 759.2 5.2 751.3 8.1 765.1 8.1 C 778.8 8.1 771 6.1 784.7 5 C 798.5 5 790.6 5 804.4 5 C 818.1 5 810.3 5 824 5 C 837.8 5 829.9 5 843.7 5 C 857.5 6.6 849.6 9.6 863.4 9.6 C 877.1 9.6 869.3 5 883 5 C 896.8 5.8 888.9 9.2 902.7 11.9 C 916.4 14.7 908.6 14.3 922.3 13 C 936.1 11.6 930.6 8.5 942 8 C 953.4 7.4 953.2 9.3 955 11.3 C 955 13.3 947 10.5 947 13.7 C 947 16.9 952.6 19 955 20.5 C 955 22 954.3 11.9 953.8 18 C 953.3 24.1 954.4 24 953.7 38 C 952.9 52 951.7 44 951.7 58 C 951.6 72 953.3 64 953.6 78 C 954 92 952.1 84 952.6 98 C 953.1 112 955 104 955 118 C 954.2 132 950.3 124 950.3 138 C 950.3 152 953.3 144 955 158 C 955 172 955 164 955 178 C 954.5 192 953.6 184 953.6 198 C 953.6 212 955 204 955 218 C 954.5 232 952.1 224 952.1 238 C 952.1 252 955 244 955 258 C 954.4 272 951.1 264 950.4 278 C 949.7 292 952.1 284 952.9 298 C 953.8 312 955 308.5 952.8 318 C 949.5 327.5 947.6 320.6 943.5 325.2 C 939.3 329.7 937.3 331 941 331 C 944.7 330.8 953.7 324.5 954 324.5 C 954.4 324.5 953.1 329.5 942 331 C 930.9 331 936.1 329.3 922.3 328.7 C 908.6 328 916.4 329.4 902.7 329.1 C 888.9 328.8 896.8 327.5 883 327.9 C 869.3 328.2 877.1 329 863.4 330.1 C 849.6 331 857.5 330.7 843.7 331 C 829.9 331 837.8 331 824 331 C 810.3 331 818.1 331 804.4 331 C 790.6 330.3 798.5 330.7 784.7 329.1 C 771 327.5 778.8 326.6 765.1 326.5 C 751.3 326.5 759.2 328.4 745.4 329 C 731.6 329.5 739.5 327.5 725.7 328.2 C 712 328.9 719.8 330.1 706.1 331 C 692.3 331 700.2 331 686.4 330.8 C 672.7 329.4 680.5 326.8 666.8 326.9 C 653 326.9 660.9 330.8 647.1 331 C 633.3 331 641.2 327.3 627.4 327.3 C 613.7 327.3 621.5 330.2 607.8 331 C 594 331 601.9 331 588.1 329.5 C 574.4 328 582.2 327.5 568.5 326.5 C 554.7 325.6 562.6 325.3 548.8 326.9 C 535 328.4 542.9 329.6 529.1 331 C 515.4 331 523.3 331 509.5 331 C 495.7 331 503.6 331 489.8 331 C 476.1 328.2 483.9 324.3 470.2 323 C 456.4 321.7 464.3 325.4 450.5 327.4 C 436.7 329.3 444.6 327.7 430.9 328.5 C 417.1 329.3 425 328.7 411.2 329.6 C 397.4 330.5 405.3 330.5 391.5 331 C 377.8 331 385.6 331 371.9 331 C 358.1 330.7 366 330.2 352.2 330.2 C 338.5 330.2 346.3 331 332.6 331 C 318.8 330.9 326.7 330.7 312.9 330 C 299.1 329.2 307 331 293.2 328.9 C 279.5 326.4 287.3 323.4 273.6 323 C 259.8 322.6 267.7 324.8 253.9 327.6 C 240.2 330.4 248 330 234.3 331 C 220.5 331 228.4 330.5 214.6 330.5 C 200.8 330.5 208.7 331 194.9 331 C 181.2 330.3 189 328.4 175.3 328.4 C 161.5 328.4 169.4 330.7 155.6 331 C 141.9 331 149.7 329.3 136 329.3 C 122.2 329.3 130.1 331 116.3 331 C 102.5 330.3 110.4 329.3 96.6 327.3 C 82.9 325.2 90.7 325.4 77 325.1 C 63.2 324.9 71.1 326.2 57.3 326.7 C 43.6 327.2 51.4 325.1 37.7 326.6 C 23.9 328.1 13.7 331 18 331 C 22.3 325.8 42.4 311.6 49.9 311.6 C 57.3 311.6 48 328.6 39.2 331 C 30.3 331 36.4 322.9 24.5 318.4 C 12.6 313.8 11.6 325.1 5.1 318 C 5 310.9 5.9 312 5.9 298 C 5.8 284 5 292 5 278 C 5.9 264 7.7 272 8.4 258 C 9.1 244 7.2 252 7 238 C 6.7 224 8.5 232 7.8 218 C 7.1 204 6 212 5 198 C 5 184 5 192 5 178 C 6.5 164 9.2 172 9.2 158 C 9.2 144 6.5 152 5 138 C 5 124 5 132 5 118 C 7.8 104 12.9 112 13 98 C 13.1 84 6.5 92 5.2 78 C 5 64 8.1 72 9.1 58 C 10.1 44 7.2 52 8.1 38 C 9 24 12.9 18.2 11.8 18 C 10.7 17.8 5 35.2 5 37.6 C 7.4 39.9 18.7 36.1 18.7 24.7 C 18.8 13.3 5.4 8.8 5.1 5 C 5 5 6.6 12.8 18 13.9 Z" fill="#F0E4C8"/></g>
  <g id="outer_border"><path d="M 18 13.9 C 29.4 15 23.9 11 37.7 8.1 C 51.4 5.2 43.6 6.6 57.3 5.5 C 71.1 5 63.2 5.2 77 5 C 90.7 5 82.9 5 96.6 5 C 110.4 6.1 102.5 7.9 116.3 8.1 C 130.1 8.2 122.2 5.6 136 5.4 C 149.7 5.3 141.9 5.4 155.6 7.8 C 169.4 10.2 161.5 11.6 175.3 12.3 C 189 12.9 181.2 9.6 194.9 9.6 C 208.7 9.6 200.8 13.9 214.6 12.2 C 228.4 10.6 220.5 6 234.3 5 C 248 5 240.2 8.3 253.9 9.5 C 267.7 10.7 259.8 10.1 273.6 8.5 C 287.3 6.9 279.5 6.2 293.2 5 C 307 5 299.1 5 312.9 5 C 326.7 5 318.8 5 332.6 5 C 346.3 5.9 338.5 7.6 352.2 7.6 C 366 7.6 358.1 5 371.9 5 C 385.6 5.2 377.8 6.5 391.5 8.2 C 405.3 9.9 397.4 9.4 411.2 9.9 C 425 10.4 417.1 9.6 430.9 9.7 C 444.6 9.8 436.7 11.8 450.5 10.2 C 464.3 8.5 456.4 5.2 470.2 5 C 483.9 5 476.1 9.7 489.8 9.7 C 503.6 9.7 495.7 5.4 509.5 5 C 523.3 5 515.4 8.6 529.1 8.6 C 542.9 8.6 535 6.3 548.8 5 C 562.6 5 554.7 5 568.5 5 C 582.2 5 574.4 5 588.1 5 C 601.9 5 594 5 607.8 5 C 621.5 8.9 613.7 14.9 627.4 16.2 C 641.2 17.6 633.3 11.6 647.1 8.9 C 660.9 6.1 653 8.3 666.8 8.4 C 680.5 8.6 672.7 10.4 686.4 9.2 C 700.2 8 692.3 5.6 706.1 5 C 719.8 5 712 7.4 725.7 7.4 C 739.5 7.4 731.6 5 745.4 5 C 759.2 5.2 751.3 8.1 765.1 8.1 C 778.8 8.1 771 6.1 784.7 5 C 798.5 5 790.6 5 804.4 5 C 818.1 5 810.3 5 824 5 C 837.8 5 829.9 5 843.7 5 C 857.5 6.6 849.6 9.6 863.4 9.6 C 877.1 9.6 869.3 5 883 5 C 896.8 5.8 888.9 9.2 902.7 11.9 C 916.4 14.7 908.6 14.3 922.3 13 C 936.1 11.6 930.6 8.5 942 8 C 953.4 7.4 953.2 9.3 955 11.3 C 955 13.3 947 10.5 947 13.7 C 947 16.9 952.6 19 955 20.5 C 955 22 954.3 11.9 953.8 18 C 953.3 24.1 954.4 24 953.7 38 C 952.9 52 951.7 44 951.7 58 C 951.6 72 953.3 64 953.6 78 C 954 92 952.1 84 952.6 98 C 953.1 112 955 104 955 118 C 954.2 132 950.3 124 950.3 138 C 950.3 152 953.3 144 955 158 C 955 172 955 164 955 178 C 954.5 192 953.6 184 953.6 198 C 953.6 212 955 204 955 218 C 954.5 232 952.1 224 952.1 238 C 952.1 252 955 244 955 258 C 954.4 272 951.1 264 950.4 278 C 949.7 292 952.1 284 952.9 298 C 953.8 312 955 308.5 952.8 318 C 949.5 327.5 947.6 320.6 943.5 325.2 C 939.3 329.7 937.3 331 941 331 C 944.7 330.8 953.7 324.5 954 324.5 C 954.4 324.5 953.1 329.5 942 331 C 930.9 331 936.1 329.3 922.3 328.7 C 908.6 328 916.4 329.4 902.7 329.1 C 888.9 328.8 896.8 327.5 883 327.9 C 869.3 328.2 877.1 329 863.4 330.1 C 849.6 331 857.5 330.7 843.7 331 C 829.9 331 837.8 331 824 331 C 810.3 331 818.1 331 804.4 331 C 790.6 330.3 798.5 330.7 784.7 329.1 C 771 327.5 778.8 326.6 765.1 326.5 C 751.3 326.5 759.2 328.4 745.4 329 C 731.6 329.5 739.5 327.5 725.7 328.2 C 712 328.9 719.8 330.1 706.1 331 C 692.3 331 700.2 331 686.4 330.8 C 672.7 329.4 680.5 326.8 666.8 326.9 C 653 326.9 660.9 330.8 647.1 331 C 633.3 331 641.2 327.3 627.4 327.3 C 613.7 327.3 621.5 330.2 607.8 331 C 594 331 601.9 331 588.1 329.5 C 574.4 328 582.2 327.5 568.5 326.5 C 554.7 325.6 562.6 325.3 548.8 326.9 C 535 328.4 542.9 329.6 529.1 331 C 515.4 331 523.3 331 509.5 331 C 495.7 331 503.6 331 489.8 331 C 476.1 328.2 483.9 324.3 470.2 323 C 456.4 321.7 464.3 325.4 450.5 327.4 C 436.7 329.3 444.6 327.7 430.9 328.5 C 417.1 329.3 425 328.7 411.2 329.6 C 397.4 330.5 405.3 330.5 391.5 331 C 377.8 331 385.6 331 371.9 331 C 358.1 330.7 366 330.2 352.2 330.2 C 338.5 330.2 346.3 331 332.6 331 C 318.8 330.9 326.7 330.7 312.9 330 C 299.1 329.2 307 331 293.2 328.9 C 279.5 326.4 287.3 323.4 273.6 323 C 259.8 322.6 267.7 324.8 253.9 327.6 C 240.2 330.4 248 330 234.3 331 C 220.5 331 228.4 330.5 214.6 330.5 C 200.8 330.5 208.7 331 194.9 331 C 181.2 330.3 189 328.4 175.3 328.4 C 161.5 328.4 169.4 330.7 155.6 331 C 141.9 331 149.7 329.3 136 329.3 C 122.2 329.3 130.1 331 116.3 331 C 102.5 330.3 110.4 329.3 96.6 327.3 C 82.9 325.2 90.7 325.4 77 325.1 C 63.2 324.9 71.1 326.2 57.3 326.7 C 43.6 327.2 51.4 325.1 37.7 326.6 C 23.9 328.1 13.7 331 18 331 C 22.3 325.8 42.4 311.6 49.9 311.6 C 57.3 311.6 48 328.6 39.2 331 C 30.3 331 36.4 322.9 24.5 318.4 C 12.6 313.8 11.6 325.1 5.1 318 C 5 310.9 5.9 312 5.9 298 C 5.8 284 5 292 5 278 C 5.9 264 7.7 272 8.4 258 C 9.1 244 7.2 252 7 238 C 6.7 224 8.5 232 7.8 218 C 7.1 204 6 212 5 198 C 5 184 5 192 5 178 C 6.5 164 9.2 172 9.2 158 C 9.2 144 6.5 152 5 138 C 5 124 5 132 5 118 C 7.8 104 12.9 112 13 98 C 13.1 84 6.5 92 5.2 78 C 5 64 8.1 72 9.1 58 C 10.1 44 7.2 52 8.1 38 C 9 24 12.9 18.2 11.8 18 C 10.7 17.8 5 35.2 5 37.6 C 7.4 39.9 18.7 36.1 18.7 24.7 C 18.8 13.3 5.4 8.8 5.1 5 C 5 5 6.6 12.8 18 13.9 Z" fill="none" stroke="#D4AD6A" stroke-width="8" stroke-linejoin="round" stroke-linecap="round"/></g>
  <g id="inner_dashed_border" clip-path="url(#clip_2)"><path d="M 30 47 C 30 41.5 34.5 37 40 37 L 920 37 C 925.5 37 930 41.5 930 47 L 930 298 C 930 303.5 925.5 308 920 308 L 40 308 C 34.5 308 30 303.5 30 298 Z" fill="none" stroke="#B05A3A" stroke-width="6" stroke-dasharray="18,12" stroke-linejoin="round" stroke-linecap="round"/></g>
</svg>