<svg xmlns="http://www.w3.org/2000/svg" viewBox="0 0 960 336" width="960" height="336">
  <defs><clipPath id="clip_4"><path d="M 18 7.1 C 25.7 7.1 23.9 5 37.7 5 C 51.4 6.4 43.6 11 57.3 11 C 71.1 11 63.2 6.2 77 5 C 90.7 5 82.9 7.6 96.6 7.6 C 110.4 7.6 102.5 5.5 116.3 5 C 130.1 5 122.2 6.2 136 6.2 C 149.7 6.2 141.9 5 155.6 5 C 169.4 8.5 161.5 15.7 175.3 16.2 C 189 16.7 181.2 10.1 194.9 6.4 C 208.7 5 200.8 6.1 214.6 5.6 C 228.4 5.2 220.5 5 234.3 5 C 248 6.4 240.2 5.4 253.9 9.5 C 267.7 13.7 259.8 18.3 273.6 16.8 C 287.3 15.4 279.5 9.5 293.2 5.4 C 307 5 299.1 5.1 312.9 5 C 326.7 5 318.8 5 332.6 5 C 346.3 5 338.5 5 352.2 5 C 366 5 358.1 5 371.9 5 C 385.6 5.3 377.8 5 391.5 5.7 C 405.3 7 397.4 7.7 411.2 8.5 C 425 9.3 417.1 8.7 430.9 8 C 444.6 7.2 436.7 6.5 450.5 6.3 C 464.3 6.1 456.4 6.2 470.2 7.5 C 483.9 8.7 476.1 9.2 489.8 9.9 C 503.6 10.5 495.7 9.9 509.5 9.3 C 523.3 8.6 515.4 7.8 529.1 7.9 C 542.9 8.1 535 9.7 548.8 9.8 C 562.6 9.9 554.7 9.8 568.5 8.1 C 582.2 6.5 574.4 6 588.1 5 C 601.9 5 594 5 607.8 5.3 C 621.5 7 613.7 8.3 627.4 9.7 C 641.2 11.2 633.3 9.5 647.1 9.5 C 660.9 9.6 653 10.6 666.8 9.8 C 680.5 9 672.7 8.6 686.4 7.3 C 700.2 6 692.3 7 706.1 6.2 C 719.8 5.4 712 5.4 725.7 5 C 739.5 5 731.6 5 745.4 5 C 759.2 5 751.3 5 765.1 5 C 778.8 8.3 771 14.3 784.7 14.3 C 798.5 14.3 790.6 6.7 804.4 5 C 818.1 5 810.3 8.9 824 9.5 C 837.8 10 829.9 7.5 843.7 6.6 C 857.5 5.7 849.6 5 863.4 6.8 C 877.1 13 869.3 23.3 883 24.3 C 896.8 25.3 888.9 16.4 902.7 9.6 C 916.4 5 908.6 5.1 922.3 5 C 936.1 5 935.6 5.2 942 9.4 C 948.4 13.6 936 13.7 940.5 17 C 945.1 20.3 950.6 23.1 955 18.9 C 955 14.7 954.7 5.3 953.1 5 C 951.4 5 950.4 6.5 950.3 18 C 950.1 29.5 951.6 24 952.6 38 C 953.7 52 955 44 953.2 58 C 951.2 72 948.3 64 947 78 C 945.7 92 947.4 84 949.6 98 C 951.8 112 951.3 104 953.2 118 C 955 132 954.4 124 955 138 C 955 152 955 144 955 158 C 953.6 172 952.2 164 951.1 178 C 950 192 951.7 184 952 198 C 952.2 212 952 204 951.9 218 C 951.8 232 950.6 224 951.7 238 C 952.8 252 955 244 955 258 C 954.9 272 951.8 264 951.3 278 C 950.8 292 953.9 284 953.5 298 C 953.2 312 953.4 310.5 950.3 318 C 947.2 325.5 945.6 329.6 944.6 319.5 C 943.6 309.3 946.9 288.8 947.4 289 C 947.9 289.2 948 307.6 946.1 320 C 944.2 331 950.3 322 942 324.5 C 933.7 327.1 936.1 325.5 922.3 327.3 C 908.6 329.1 916.4 328.3 902.7 329.6 C 888.9 331 896.8 331 883 331 C 869.3 330.2 877.1 327.2 863.4 327.2 C 849.6 327.2 857.5 330.8 843.7 331 C 829.9 331 837.8 328.2 824 327.7 C 810.3 327.3 818.1 329.5 804.4 329.7 C 790.6 329.9 798.5 329 784.7 328.4 C 771 327.8 778.8 327.2 765.1 328.1 C 751.3 329 759.2 330.9 745.4 331 C 731.6 331 739.5 330.2 725.7 328.5 C 712 326.8 719.8 326.2 706.1 326.1 C 692.3 326.1 700.2 326.8 686.4 328.5 C 672.7 330.2 680.5 331 666.8 331 C 653 329.1 660.9 323.8 647.1 323 C 633.3 322.2 641.2 327.5 627.4 328.7 C 613.7 329.9 621.5 325.6 607.8 326.5 C 594 327.3 601.9 330.2 588.1 331 C 574.4 331 582.2 329.7 568.5 328.8 C 554.7 327.9 562.6 327.8 548.8 328.5 C 535 329.3 542.9 330.1 529.1 331 C 515.4 331 523.3 331 509.5 331 C 495.7 331 503.6 331 489.8 331 C 476.1 331 483.9 331 470.2 331 C 456.4 328.2 464.3 323 450.5 323 C 436.7 323 444.6 328.2 430.9 331 C 417.1 331 425 331 411.2 331 C 397.4 331 405.3 331 391.5 331 C 377.8 330.6 385.6 331 371.9 329.9 C 358.1 328.3 366 326.2 352.2 326.6 C 338.5 327 346.3 331 332.6 331 C 318.8 331 326.7 328.8 312.9 326.5 C 299.1 324.2 307 324.2 293.2 324.3 C 279.5 324.4 287.3 324.5 273.6 326.8 C 259.8 329.1 267.7 329.8 253.9 331 C 240.2 331 248 330.6 234.3 330.2 C 220.5 329.8 228.4 329.6 214.6 329.9 C 200.8 330.2 208.7 331 194.9 331 C 181.2 330.2 189 328.6 175.3 327.7 C 161.5 326.8 169.4 328.2 155.6 328.4 C 141.9 328.6 149.7 328.5 136 328.3 C 122.2 328 130.1 326.7 116.3 327.7 C 102.5 328.6 110.4 329.8 96.6 331 C 82.9 331 90.7 331 77 331 C 63.2 330.1 71.1 329.5 57.3 328.4 C 43.6 327.3 51.4 327.7 37.7 327.9 C 23.9 328 29.4 330.1 18 328.9 C 6.6 327.7 5 323.8 5.1 324.6 C 8.2 325.3 26.9 331 26.9 331 C 26.8 325.8 11.5 314.3 5 309.7 C 5 305.2 7.8 322.1 8.4 318 C 8.9 313.9 7.1 312 6.5 298 C 5.9 284 5.9 292 6.7 278 C 7.6 264 9.5 272 8.9 258 C 8.3 244 6.4 252 5 238 C 5 224 5 232 5 218 C 6.6 204 8.2 212 9.6 198 C 11.1 184 9.7 192 9.2 178 C 8.6 164 9.4 172 8 158 C 6.5 144 6 152 5 138 C 5 124 5 132 5 118 C 5.8 104 6.1 112 7.2 98 C 8.4 84 9.1 92 8.3 78 C 7.5 64 5 72 5 58 C 6.7 44 13 52 13 38 C 13 24 7.8 24.2 5 18 C 5 11.8 5 21 5 20.3 C 6.7 19.6 6 21.3 9.8 15.9 C 13.5 10.6 12.8 8.1 15.7 5 C 18.6 5 10.3 7.1 18 7.1 Z"/></clipPath></defs>
  <g id="background"><path d="M 18 7.1 C 25.7 7.1 23.9 5 37.7 5 C 51.4 6.4 43.6 11 57.3 11 C 71.1 11 63.2 6.2 77 5 C 90.7 5 82.9 7.6 96.6 7.6 C 110.4 7.6 102.5 5.5 116.3 5 C 130.1 5 122.2 6.2 136 6.2 C 149.7 6.2 141.9 5 155.6 5 C 169.4 8.5 161.5 15.7 175.3 16.2 C 189 16.7 181.2 10.1 194.9 6.4 C 208.7 5 200.8 6.1 214.6 5.6 C 228.4 5.2 220.5 5 234.3 5 C 248 6.4 240.2 5.4 253.9 9.5 C 267.7 13.7 259.8 18.3 273.6 16.8 C 287.3 15.4 279.5 9.5 293.2 5.4 C 307 5 299.1 5.1 312.9 5 C 326.7 5 318.8 5 332.6 5 C 346.3 5 338.5 5 352.2 5 C 366 5 358.1 5 371.9 5 C 385.6 5.3 377.8 5 391.5 5.7 C 405.3 7 397.4 7.7 411.2 8.5 C 425 9.3 417.1 8.7 430.9 8 C 444.6 7.2 436.7 6.5 450.5 6.3 C 464.3 6.1 456.4 6.2 470.2 7.5 C 483.9 8.7 476.1 9.2 489.8 9.9 C 503.6 10.5 495.7 9.9 509.5 9.3 C 523.3 8.6 515.4 7.8 529.1 7.9 C 542.9 8.1 535 9.7 548.8 9.8 C 562.6 9.9 554.7 9.8 568.5 8.1 C 582.2 6.5 574.4 6 588.1 5 C 601.9 5 594 5 607.8 5.3 C 621.5 7 613.7 8.3 627.4 9.7 C 641.2 11.2 633.3 9.5 647.1 9.5 C 660.9 9.6 653 10.6 666.8 9.8 C 680.5 9 672.7 8.6 686.4 7.3 C 700.2 6 692.3 7 706.1 6.2 C 719.8 5.4 712 5.4 725.7 5 C 739.5 5 731.6 5 745.4 5 C 759.2 5 751.3 5 765.1 5 C 778.8 8.3 771 14.3 784.7 14.3 C 798.5 14.3 790.6 6.7 804.4 5 C 818.1 5 810.3 8.9 824 9.5 C 837.8 10 829.9 7.5 843.7 6.6 C 857.5 5.7 849.6 5 863.4 6.8 C 877.1 13 869.3 23.3 883 24.3 C 896.8 25.3 888.9 16.4 902.7 9.6 C 916.4 5 908.6 5.1 922.3 5 C 936.1 5 935.6 5.2 942 9.4 C 948.4 13.6 936 13.7 940.5 17 C 945.1 20.3 950.6 23.1 955 18.9 C 955 14.7 954.7 5.3 953.1 5 C 951.4 5 950.4 6.5 950.3 18 C 950.1 29.5 951.6 24 952.6 38 C 953.7 52 955 44 953.2 58 C 951.2 72 948.3 64 947 78 C 945.7 92 947.4 84 949.6 98 C 951.8 112 951.3 104 953.2 118 C 955 132 954.4 124 955 138 C 955 152 955 144 955 158 C 953.6 172 952.2 164 951.1 178 C 950 192 951.7 184 952 198 C 952.2 212 952 204 951.9 218 C 951.8 232 950.6 224 951.7 238 C 952.8 252 955 244 955 258 C 954.9 272 951.8 264 951.3 278 C 950.8 292 953.9 284 953.5 298 C 953.2 312 953.4 310.5 950.3 318 C 947.2 325.5 945.6 329.6 944.6 319.5 C 943.6 309.3 946.9 288.8 947.4 289 C 947.9 289.2 948 307.6 946.1 320 C 944.2 331 950.3 322 942 324.5 C 933.7 327.1 936.1 325.5 922.3 327.3 C 908.6 329.1 916.4 328.3 902.7 329.6 C 888.9 331 896.8 331 883 331 C 869.3 330.2 877.1 327.2 863.4 327.2 C 849.6 327.2 857.5 330.8 843.7 331 C 829.9 331 837.8 328.2 824 327.7 C 810.3 327.3 818.1 329.5 804.4 329.7 C 790.6 329.9 798.5 329 784.7 328.4 C 771 327.8 778.8 327.2 765.1 328.1 C 751.3 329 759.2 330.9 745.4 331 C 731.6 331 739.5 330.2 725.7 328.5 C 712 326.8 719.8 326.2 706.1 326.1 C 692.3 326.1 700.2 326.8 686.4 328.5 C 672.7 330.2 680.5 331 666.8 331 C 653 329.1 660.9 323.8 647.1 323 C 633.3 322.2 641.2 327.5 627.4 328.7 C 613.7 329.9 621.5 325.6 607.8 326.5 C 594 327.3 601.9 330.2 588.1 331 C 574.4 331 582.2 329.7 568.5 328.8 C 554.7 327.9 562.6 327.8 548.8 328.5 C 535 329.3 542.9 330.1 529.1 331 C 515.4 331 523.3 331 509.5 331 C 495.7 331 503.6 331 489.8 331 C 476.1 331 483.9 331 470.2 331 C 456.4 328.2 464.3 323 450.5 323 C 436.7 323 444.6 328.2 430.9 331 C 417.1 331 425 331 411.2 331 C 397.4 331 405.3 331 391.5 331 C 377.8 330.6 385.6 331 371.9 329.9 C 358.1 328.3 366 326.2 352.2 326.6 C 338.5 327 346.3 331 332.6 331 C 318.8 331 326.7 328.8 312.9 326.5 C 299.1 324.2 307 324.2 293.2 324.3 C 279.5 324.4 287.3 324.5 273.6 326.8 C 259.8 329.1 267.7 329.8 253.9 331 C 240.2 331 248 330.6 234.3 330.2 C 220.5 329.8 228.4 329.6 214.6 329.9 C 200.8 330.2 208.7 331 194.9 331 C 181.2 330.2 189 328.6 175.3 327.7 C 161.5 326.8 169.4 328.2 155.6 328.4 C 141.9 328.6 149.7 328.5 136 328.3 C 122.2 328 130.1 326.7 116.3 327.7 C 102.5 328.6 110.4 329.8 96.6 331 C 82.9 331 90.7 331 77 331 C 63.2 330.1 71.1 329.5 57.3 328.4 C 43.6 327.3 51.4 327.7 37.7 327.9 C 23.9 328 29.4 330.1 18 328.9 C 6.6 327.7 5 323.8 5.1 324.6 C 8.2 325.3 26.9 331 26.9 331 C 26.8 325.8 11.5 314.3 5 309.7 C 5 305.2 7.8 322.1 8.4 318 C 8.9 313.9 7.1 312 6.5 298 C 5.9 284 5.9 292 6.7 278 C 7.6 264 9.5 272 8.9 258 C 8.3 244 6.4 252 5 238 C 5 224 5 232 5 218 C 6.6 204 8.2 212 9.6 198 C 11.1 184 9.7 192 9.2 178 C 8.6 164 9.4 172 8 158 C 6.5 144 6 152 5 138 C 5 124 5 132 5 118 C 5.8 104 6.1 112 7.2 98 C 8.4 84 9.1 92 8.3 78 C 7.5 64 5 72 5 58 C 6.7 44 13 52 13 38 C 13 24 7.8 24.2 5 18 C 5 11.8 5 21 5 20.3 C 6.7 19.6 6 21.3 9.8 15.9 C 13.5 10.6 12.8 8.1 15.7 5 C 18.6 5 10.3 7.1 18 7.1 Z" fill="#F0E4C8"/></g>
  <g id="outer_border"><path d="M 18 7.1 C 25.7 7.1 23.9 5 37.7 5 C 51.4 6.4 43.6 11 57.3 11 C 71.1 11 63.2 6.2 77 5 C 90.7 5 82.9 7.6 96.6 7.6 C 110.4 7.6 102.5 5.5 116.3 5 C 130.1 5 122.2 6.2 136 6.2 C 149.7 6.2 141.9 5 155.6 5 C 169.4 8.5 161.5 15.7 175.3 16.2 C 189 16.7 181.2 10.1 194.9 6.4 C 208.7 5 200.8 6.1 214.6 5.6 C 228.4 5.2 220.5 5 234.3 5 C 248 6.4 240.2 5.4 253.9 9.5 C 267.7 13.7 259.8 18.3 273.6 16.8 C 287.3 15.4 279.5 9.5 293.2 5.4 C 307 5 299.1 5.1 312.9 5 C 326.7 5 318.8 5 332.6 5 C 346.3 5 338.5 5 352.2 5 C 366 5 358.1 5 371.9 5 C 385.6 5.3 377.8 5 391.5 5.7 C 405.3 7 397.4 7.7 411.2 8.5 C 425 9.3 417.1 8.7 430.9 8 C 444.6 7.2 436.7 6.5 450.5 6.3 C 464.3 6.1 456.4 6.2 470.2 7.5 C 483.9 8.7 476.1 9.2 489.8 9.9 C 503.6 10.5 495.7 9.9 509.5 9.3 C 523.3 8.6 515.4 7.8 529.1 7.9 C 542.9 8.1 535 9.7 548.8 9.8 C 562.6 9.9 554.7 9.8 568.5 8.1 C 582.2 6.5 574.4 6 588.1 5 C 601.9 5 594 5 607.8 5.3 C 621.5 7 613.7 8.3 627.4 9.7 C 641.2 11.2 633.3 9.5 647.1 9.5 C 660.9 9.6 653 10.6 666.8 9.8 C 680.5 9 672.7 8.6 686.4 7.3 C 700.2 6 692.3 7 706.1 6.2 C 719.8 5.4 712 5.4 725.7 5 C 739.5 5 731.6 5 745.4 5 C 759.2 5 751.3 5 765.1 5 C 778.8 8.3 771 14.3 784.7 14.3 C 798.5 14.3 790.6 6.7 804.4 5 C 818.1 5 810.3 8.9 824 9.5 C 837.8 10 829.9 7.5 843.7 6.6 C 857.5 5.7 849.6 5 863.4 6.8 C 877.1 13 869.3 23.3 883 24.3 C 896.8 25.3 888.9 16.4 902.7 9.6 C 916.4 5 908.6 5.1 922.3 5 C 936.1 5 935.6 5.2 942 9.4 C 948.4 13.6 936 13.7 940.5 17 C 945.1 20.3 950.6 23.1 955 18.9 C 955 14.7 954.7 5.3 953.1 5 C 951.4 5 950.4 6.5 950.3 18 C 950.1 29.5 951.6 24 952.6 38 C 953.7 52 955 44 953.2 58 C 951.2 72 948.3 64 947 78 C 945.7 92 947.4 84 949.6 98 C 951.8 112 951.3 104 953.2 118 C 955 132 954.4 124 955 138 C 955 152 955 144 955 158 C 953.6 172 952.2 164 951.1 178 C 950 192 951.7 184 952 198 C 952.2 212 952 204 951.9 218 C 951.8 232 950.6 224 951.7 238 C 952.8 252 955 244 955 258 C 954.9 272 951.8 264 951.3 278 C 950.8 292 953.9 284 953.5 298 C 953.2 312 953.4 310.5 950.3 318 C 947.2 325.5 945.6 329.6 944.6 319.5 C 943.6 309.3 946.9 288.8 947.4 289 C 947.9 289.2 948 307.6 946.1 320 C 944.2 331 950.3 322 942 324.5 C 933.7 327.1 936.1 325.5 922.3 327.3 C 908.6 329.1 916.4 328.3 902.7 329.6 C 888.9 331 896.8 331 883 331 C 869.3 330.2 877.1 327.2 863.4 327.2 C 849.6 327.2 857.5 330.8 843.7 331 C 829.9 331 837.8 328.2 824 327.7 C 810.3 327.3 818.1 329.5 804.4 329.7 C 790.6 329.9 798.5 329 784.7 328.4 C 771 327.8 778.8 327.2 765.1 328.1 C 751.3 329 759.2 330.9 745.4 331 C 731.6 331 739.5 330.2 725.7 328.5 C 712 326.8 719.8 326.2 706.1 326.1 C 692.3 326.1 700.2 326.8 686.4 328.5 C 672.7 330.2 680.5 331 666.8 331 C 653 329.1 660.9 323.8 647.1 323 C 633.3 322.2 641.2 327.5 627.4 328.7 C 613.7 329.9 621.5 325.6 607.8 326.5 C 594 327.3 601.9 330.2 588.1 331 C 574.4 331 582.2 329.7 568.5 328.8 C 554.7 327.9 562.6 327.8 548.8 328.5 C 535 329.3 542.9 330.1 529.1 331 C 515.4 331 523.3 331 509.5 331 C 495.7 331 503.6 331 489.8 331 C 476.1 331 483.9 331 470.2 331 C 456.4 328.2 464.3 323 450.5 323 C 436.7 323 444.6 328.2 430.9 331 C 417.1 331 425 331 411.2 331 C 397.4 331 405.3 331 391.5 331 C 377.8 330.6 385.6 331 371.9 329.9 C 358.1 328.3 366 326.2 352.2 326.6 C 338.5 327 346.3 331 332.6 331 C 318.8 331 326.7 328.8 312.9 326.5 C 299.1 324.2 307 324.2 293.2 324.3 C 279.5 324.4 287.3 324.5 273.6 326.8 C 259.8 329.1 267.7 329.8 253.9 331 C 240.2 331 248 330.6 234.3 330.2 C 220.5 329.8 228.4 329.6 214.6 329.9 C 200.8 330.2 208.7 331 194.9 331 C 181.2 330.2 189 328.6 175.3 327.7 C 161.5 326.8 169.4 328.2 155.6 328.4 C 141.9 328.6 149.7 328.5 136 328.3 C 122.2 328 130.1 326.7 116.3 327.7 C 102.5 328.6 110.4 329.8 96.6 331 C 82.9 331 90.7 331 77 331 C 63.2 330.1 71.1 329.5 57.3 328.4 C 43.6 327.3 51.4 327.7 37.7 327.9 C 23.9 328 29.4 330.1 18 328.9 C 6.6 327.7 5 323.8 5.1 324.6 C 8.2 325.3 26.9 331 26.9 331 C 26.8 325.8 11.5 314.3 5 309.7 C 5 305.2 7.8 322.1 8.4 318 C 8.9 313.9 7.1 312 6.5 298 C 5.9 284 5.9 292 6.7 278 C 7.6 264 9.5 272 8.9 258 C 8.3 244 6.4 252 5 238 C 5 224 5 232 5 218 C 6.6 204 8.2 212 9.6 198 C 11.1 184 9.7 192 9.2 178 C 8.6 164 9.4 172 8 158 C 6.5 144 6 152 5 138 C 5 124 5 132 5 118 C 5.8 104 6.1 112 7.2 98 C 8.4 84 9.1 92 8.3 78 C 7.5 64 5 72 5 58 C 6.7 44 13 52 13 38 C 13 24 7.8 24.2 5 18 C 5 11.8 5 21 5 20.3 C 6.7 19.6 6 21.3 9.8 15.9 C 13.5 10.6 12.8 8.1 15.7 5 C 18.6 5 10.3 7.1 18 7.1 Z" fill="none" stroke="#D4AD6A" stroke-width="8" stroke-linejoin="round" stroke-linecap="round"/></g>
  <g id="inner_dashed_border" clip-path="url(#clip_4)"><path d="M 30 47 C 30 41.5 34.5 37 40 37 L 920 37 C 925.5 37 930 41.5 930 47 L 930 298 C 930 303.5 925.5 308 920 308 L 40 308 C 34.5 308 30 303.5 30 298 Z" fill="none" stroke="#B05A3A" stroke-width="6" stroke-dasharray="18,12" stroke-linejoin="round" stroke-linecap="round"/></g>
</svg>