<svg xmlns="http://www.w3.org/2000/svg" viewBox="0 0 960 336" width="960" height="336">
  <defs><clipPath id="clip_7"><path d="M 18 9.3 C 22.3 11.3 23.9 12 37.7 12 C 51.4 12.1 43.6 11 57.3 9.5 C 71.1 7.9 63.2 9.2 77 7.6 C 90.7 6 82.9 5.9 96.6 5 C 110.4 5 102.5 5 116.3 5 C 130.1 5 122.2 5 136 5 C 149.7 5 141.9 5 155.6 5 C 169.4 10.2 161.5 19.8 175.3 19.8 C 189 19.8 181.2 10.2 194.9 5 C 208.7 5 200.8 5 214.6 5 C 228.4 5.2 220.5 5 234.3 5.5 C 248 6.1 240.2 5.8 253.9 6.8 C 267.7 7.7 259.8 8.8 273.6 8.1 C 287.3 7.5 279.5 5 293.2 5 C 307 5.1 299.1 7.2 312.9 8.5 C 326.7 9.7 318.8 9.8 332.6 8.6 C 346.3 7.4 338.5 6.3 352.2 5 C 366 5 358.1 5 371.9 5 C 385.6 5 377.8 5 391.5 5 C 405.3 5 397.4 5 411.2 5 C 425 5 417.1 5 430.9 5 C 444.6 6.2 436.7 7.1 450.5 8.3 C 464.3 9.6 456.4 8.1 470.2 8.5 C 483.9 8.9 476.1 9.7 489.8 9.4 C 503.6 9.1 495.7 7.7 509.5 7.7 C 523.3 7.7 515.4 9.2 529.1 9.4 C 542.9 9.7 535 9.3 548.8 8.5 C 562.6 7.7 554.7 8.3 568.5 7.1 C 582.2 5.9 574.4 5.7 588.1 5 C 601.9 5 594 5 607.8 5 C 621.5 5.1 613.7 5 627.4 5.2 C 641.2 8.3 633.3 13.7 647.1 13.7 C 660.9 13.6 653 6.8 666.8 5 C 680.5 5 672.7 8.4 686.4 8.5 C 700.2 8.6 692.3 5.6 706.1 5.3 C 719.8 5 712 7.1 725.7 7.5 C 739.5 7.8 731.6 6.1 745.4 6.3 C 759.2 6.4 751.3 7.6 765.1 8 C 778.8 8.3 771 8 784.7 7.1 C 798.5 6.3 790.6 6.2 804.4 5.5 C 818.1 5 810.3 5.2 824 5 C 837.8 5 829.9 5 843.7 5 C 857.5 8.9 849.6 14.8 863.4 16 C 877.1 17.2 869.3 11.4 883 8.5 C 896.8 5.6 888.9 8.6 902.7 7.8 C 916.4 7 908.6 5.7 922.3 6.1 C 936.1 6.6 935.2 5 942 9.1 C 948.8 18.5 941.7 33 941.9 33 C 942 33 944.1 17 942.6 9.1 C 941 5 933.1 7.5 937.5 10.6 C 941.8 13.7 950.1 8.4 955 18 C 955 27.6 951.6 24 951.4 38 C 951.2 52 954.7 44 954.4 58 C 954.2 72 952.6 64 950.6 78 C 948.7 92 948.7 84 948.9 98 C 949 112 950.4 104 951.1 118 C 951.7 132 949.3 124 950.7 138 C 952.1 152 955 144 955 158 C 953.7 172 948.2 164 947 178 C 945.8 192 949.9 184 951.4 198 C 953 212 951.7 204 951.4 218 C 951 232 950.3 224 950.4 238 C 950.5 252 951.4 244 951.7 258 C 952 272 951.5 264 951.2 278 C 951 292 951.2 284 951 298 C 950.8 312 954.8 320.3 950.6 318 C 946.3 315.7 944.6 286.8 938.9 291.4 C 933.3 295.9 940.1 317.1 934.4 331 C 928.7 331 919.9 331 922.5 331 C 925.2 329.4 942.1 328.1 942 326.5 C 941.9 324.8 936.1 327.1 922.3 326.3 C 908.6 325.4 916.4 322.6 902.7 324.1 C 888.9 325.6 896.8 328.6 883 330.6 C 869.3 331 877.1 330.4 863.4 329.9 C 849.6 329.4 857.5 328.8 843.7 329.2 C 829.9 329.6 837.8 331 824 331 C 810.3 330.5 818.1 327.8 804.4 327.8 C 790.6 327.8 798.5 329.9 784.7 331 C 771 331 778.8 331 765.1 331 C 751.3 329.5 759.2 327.4 745.4 326.6 C 731.6 325.8 739.5 327.7 725.7 328.7 C 712 329.8 719.8 328.8 706.1 329.6 C 692.3 330.4 700.2 331 686.4 331 C 672.7 330.5 680.5 328 666.8 328 C 653 328 660.9 330 647.1 331 C 633.3 331 641.2 331 627.4 331 C 613.7 331 621.5 331 607.8 331 C 594 330.3 601.9 328.9 588.1 328.9 C 574.4 328.9 582.2 331 568.5 331 C 554.7 330.2 562.6 327.3 548.8 326.7 C 535 326.1 542.9 327.8 529.1 329.3 C 515.4 330.8 523.3 331 509.5 331 C 495.7 330 503.6 326.5 489.8 326.5 C 476.1 326.5 483.9 330.5 470.2 331 C 456.4 331 464.3 328 450.5 328 C 436.7 328 444.6 329.9 430.9 331 C 417.1 331 425 331 411.2 331 C 397.4 330.3 405.3 329.4 391.5 329.1 C 377.8 328.8 385.6 330.1 371.9 330.2 C 358.1 330.3 366 329.1 352.2 329.4 C 338.5 329.6 346.3 331 332.6 331 C 318.8 331 326.7 331 312.9 329.4 C 299.1 327.1 307 324.4 293.2 324.4 C 279.5 324.4 287.3 327.9 273.6 329.3 C 259.8 330.7 267.7 329.3 253.9 328.3 C 240.2 327.4 248 325.7 234.3 326.6 C 220.5 327.5 228.4 329.5 214.6 331 C 200.8 331 208.7 331 194.9 331 C 181.2 330.4 189 329.2 175.3 329.2 C 161.5 329.2 169.4 330.7 155.6 331 C 141.9 331 149.7 330.3 136 329.9 C 122.2 329.5 130.1 331 116.3 329.8 C 102.5 328.7 110.4 327.9 96.6 326.6 C 82.9 325.3 90.7 324.7 77 326.2 C 63.2 327.6 71.1 329.6 57.3 330.7 C 43.6 331 51.4 329.4 37.7 329.3 C 23.9 329.3 21.4 331 18 330.6 C 14.6 329.4 29.3 329.4 28 325.9 C 26.7 322.4 17.5 320 14.2 320.6 C 10.9 321.2 20.5 328.5 18.6 327.6 C 16.7 326.7 10.7 328.4 8.7 318 C 6.8 307.6 14.3 312 13 298 C 11.7 284 7.1 292 5 278 C 5 264 6.5 272 7 258 C 7.6 244 6.1 252 6.6 238 C 7.1 224 9 232 8.5 218 C 7.9 204 5 212 5 198 C 6.6 184 10.5 192 13 178 C 15.5 164 14.5 172 12.2 158 C 9.8 144 8.9 152 6.4 138 C 5 124 5.5 132 5 118 C 5 104 5 112 5 98 C 5.7 84 6.3 92 7.1 78 C 7.9 64 7.1 72 7.3 58 C 7.5 44 5.7 52 7.7 38 C 9.7 24 9.1 22.4 13 18 C 16.9 13.6 21.5 21.7 18.7 25.4 C 15.9 29.1 5 35.2 5 28.5 C 7.3 21.8 20.8 13 25.4 6.2 C 29.9 5 13.7 7.3 18 9.3 Z"/></clipPath></defs>
  <g id="background"><path d="M 18 9.3 C 22.3 11.3 23.9 12 37.7 12 C 51.4 12.1 43.6 11 57.3 9.5 C 71.1 7.9 63.2 9.2 77 7.6 C 90.7 6 82.9 5.9 96.6 5 C 110.4 5 102.5 5 116.3 5 C 130.1 5 122.2 5 136 5 C 149.7 5 141.9 5 155.6 5 C 169.4 10.2 161.5 19.8 175.3 19.8 C 189 19.8 181.2 10.2 194.9 5 C 208.7 5 200.8 5 214.6 5 C 228.4 5.2 220.5 5 234.3 5.5 C 248 6.1 240.2 5.8 253.9 6.8 C 267.7 7.7 259.8 8.8 273.6 8.1 C 287.3 7.5 279.5 5 293.2 5 C 307 5.1 299.1 7.2 312.9 8.5 C 326.7 9.7 318.8 9.8 332.6 8.6 C 346.3 7.4 338.5 6.3 352.2 5 C 366 5 358.1 5 371.9 5 C 385.6 5 377.8 5 391.5 5 C 405.3 5 397.4 5 411.2 5 C 425 5 417.1 5 430.9 5 C 444.6 6.2 436.7 7.1 450.5 8.3 C 464.3 9.6 456.4 8.1 470.2 8.5 C 483.9 8.9 476.1 9.7 489.8 9.4 C 503.6 9.1 495.7 7.7 509.5 7.7 C 523.3 7.7 515.4 9.2 529.1 9.4 C 542.9 9.7 535 9.3 548.8 8.5 C 562.6 7.7 554.7 8.3 568.5 7.1 C 582.2 5.9 574.4 5.7 588.1 5 C 601.9 5 594 5 607.8 5 C 621.5 5.1 613.7 5 627.4 5.2 C 641.2 8.3 633.3 13.7 647.1 13.7 C 660.9 13.6 653 6.8 666.8 5 C 680.5 5 672.7 8.4 686.4 8.5 C 700.2 8.6 692.3 5.6 706.1 5.3 C 719.8 5 712 7.1 725.7 7.5 C 739.5 7.8 731.6 6.1 745.4 6.3 C 759.2 6.4 751.3 7.6 765.1 8 C 778.8 8.3 771 8 784.7 7.1 C 798.5 6.3 790.6 6.2 804.4 5.5 C 818.1 5 810.3 5.2 824 5 C 837.8 5 829.9 5 843.7 5 C 857.5 8.9 849.6 14.8 863.4 16 C 877.1 17.2 869.3 11.4 883 8.5 C 896.8 5.6 888.9 8.6 902.7 7.8 C 916.4 7 908.6 5.7 922.3 6.1 C 936.1 6.6 935.2 5 942 9.1 C 948.8 18.5 941.7 33 941.9 33 C 942 33 944.1 17 942.6 9.1 C 941 5 933.1 7.5 937.5 10.6 C 941.8 13.7 950.1 8.4 955 18 C 955 27.6 951.6 24 951.4 38 C 951.2 52 954.7 44 954.4 58 C 954.2 72 952.6 64 950.6 78 C 948.7 92 948.7 84 948.9 98 C 949 112 950.4 104 951.1 118 C 951.7 132 949.3 124 950.7 138 C 952.1 152 955 144 955 158 C 953.7 172 948.2 164 947 178 C 945.8 192 949.9 184 951.4 198 C 953 212 951.7 204 951.4 218 C 951 232 950.3 224 950.4 238 C 950.5 252 951.4 244 951.7 258 C 952 272 951.5 264 951.2 278 C 951 292 951.2 284 951 298 C 950.8 312 954.8 320.3 950.6 318 C 946.3 315.7 944.6 286.8 938.9 291.4 C 933.3 295.9 940.1 317.1 934.4 331 C 928.7 331 919.9 331 922.5 331 C 925.2 329.4 942.1 328.1 942 326.5 C 941.9 324.8 936.1 327.1 922.3 326.3 C 908.6 325.4 916.4 322.6 902.7 324.1 C 888.9 325.6 896.8 328.6 883 330.6 C 869.3 331 877.1 330.4 863.4 329.9 C 849.6 329.4 857.5 328.8 843.7 329.2 C 829.9 329.6 837.8 331 824 331 C 810.3 330.5 818.1 327.8 804.4 327.8 C 790.6 327.8 798.5 329.9 784.7 331 C 771 331 778.8 331 765.1 331 C 751.3 329.5 759.2 327.4 745.4 326.6 C 731.6 325.8 739.5 327.7 725.7 328.7 C 712 329.8 719.8 328.8 706.1 329.6 C 692.3 330.4 700.2 331 686.4 331 C 672.7 330.5 680.5 328 666.8 328 C 653 328 660.9 330 647.1 331 C 633.3 331 641.2 331 627.4 331 C 613.7 331 621.5 331 607.8 331 C 594 330.3 601.9 328.9 588.1 328.9 C 574.4 328.9 582.2 331 568.5 331 C 554.7 330.2 562.6 327.3 548.8 326.7 C 535 326.1 542.9 327.8 529.1 329.3 C 515.4 330.8 523.3 331 509.5 331 C 495.7 330 503.6 326.5 489.8 326.5 C 476.1 326.5 483.9 330.5 470.2 331 C 456.4 331 464.3 328 450.5 328 C 436.7 328 444.6 329.9 430.9 331 C 417.1 331 425 331 411.2 331 C 397.4 330.3 405.3 329.4 391.5 329.1 C 377.8 328.8 385.6 330.1 371.9 330.2 C 358.1 330.3 366 329.1 352.2 329.4 C 338.5 329.6 346.3 331 332.6 331 C 318.8 331 326.7 331 312.9 329.4 C 299.1 327.1 307 324.4 293.2 324.4 C 279.5 324.4 287.3 327.9 273.6 329.3 C 259.8 330.7 267.7 329.3 253.9 328.3 C 240.2 327.4 248 325.7 234.3 326.6 C 220.5 327.5 228.4 329.5 214.6 331 C 200.8 331 208.7 331 194.9 331 C 181.2 330.4 189 329.2 175.3 329.2 C 161.5 329.2 169.4 330.7 155.6 331 C 141.9 331 149.7 330.3 136 329.9 C 122.2 329.5 130.1 331 116.3 329.8 C 102.5 328.7 110.4 327.9 96.6 326.6 C 82.9 325.3 90.7 324.7 77 326.2 C 63.2 327.6 71.1 329.6 57.3 330.7 C 43.6 331 51.4 329.4 37.7 329.3 C 23.9 329.3 21.4 331 18 330.6 C 14.6 329.4 29.3 329.4 28 325.9 C 26.7 322.4 17.5 320 14.2 320.6 C 10.9 321.2 20.5 328.5 18.6 327.6 C 16.7 326.7 10.7 328.4 8.7 318 C 6.8 307.6 14.3 312 13 298 C 11.7 284 7.1 292 5 278 C 5 264 6.5 272 7 258 C 7.6 244 6.1 252 6.6 238 C 7.1 224 9 232 8.5 218 C 7.9 204 5 212 5 198 C 6.6 184 10.5 192 13 178 C 15.5 164 14.5 172 12.2 158 C 9.8 144 8.9 152 6.4 138 C 5 124 5.5 132 5 118 C 5 104 5 112 5 98 C 5.7 84 6.3 92 7.1 78 C 7.9 64 7.1 72 7.3 58 C 7.5 44 5.7 52 7.7 38 C 9.7 24 9.1 22.4 13 18 C 16.9 13.6 21.5 21.7 18.7 25.4 C 15.9 29.1 5 35.2 5 28.5 C 7.3 21.8 20.8 13 25.4 6.2 C 29.9 5 13.7 7.3 18 9.3 Z" fill="#F0E4C8"/></g>
  <g id="outer_border"><path d="M 18 9.3 C 22.3 11.3 23.9 12 37.7 12 C 51.4 12.1 43.6 11 57.3 9.5 C 71.1 7.9 63.2 9.2 77 7.6 C 90.7 6 82.9 5.9 96.6 5 C 110.4 5 102.5 5 116.3 5 C 130.1 5 122.2 5 136 5 C 149.7 5 141.9 5 155.6 5 C 169.4 10.2 161.5 19.8 175.3 19.8 C 189 19.8 181.2 10.2 194.9 5 C 208.7 5 200.8 5 214.6 5 C 228.4 5.2 220.5 5 234.3 5.5 C 248 6.1 240.2 5.8 253.9 6.8 C 267.7 7.7 259.8 8.8 273.6 8.1 C 287.3 7.5 279.5 5 293.2 5 C 307 5.1 299.1 7.2 312.9 8.5 C 326.7 9.7 318.8 9.8 332.6 8.6 C 346.3 7.4 338.5 6.3 352.2 5 C 366 5 358.1 5 371.9 5 C 385.6 5 377.8 5 391.5 5 C 405.3 5 397.4 5 411.2 5 C 425 5 417.1 5 430.9 5 C 444.6 6.2 436.7 7.1 450.5 8.3 C 464.3 9.6 456.4 8.1 470.2 8.5 C 483.9 8.9 476.1 9.7 489.8 9.4 C 503.6 9.1 495.7 7.7 509.5 7.7 C 523.3 7.7 515.4 9.2 529.1 9.4 C 542.9 9.7 535 9.3 548.8 8.5 C 562.6 7.7 554.7 8.3 568.5 7.1 C 582.2 5.9 574.4 5.7 588.1 5 C 601.9 5 594 5 607.8 5 C 621.5 5.1 613.7 5 627.4 5.2 C 641.2 8.3 633.3 13.7 647.1 13.7 C 660.9 13.6 653 6.8 666.8 5 C 680.5 5 672.7 8.4 686.4 8.5 C 700.2 8.6 692.3 5.6 706.1 5.3 C 719.8 5 712 7.1 725.7 7.5 C 739.5 7.8 731.6 6.1 745.4 6.3 C 759.2 6.4 751.3 7.6 765.1 8 C 778.8 8.3 771 8 784.7 7.1 C 798.5 6.3 790.6 6.2 804.4 5.5 C 818.1 5 810.3 5.2 824 5 C 837.8 5 829.9 5 843.7 5 C 857.5 8.9 849.6 14.8 863.4 16 C 877.1 17.2 869.3 11.4 883 8.5 C 896.8 5.6 888.9 8.6 902.7 7.8 C 916.4 7 908.6 5.7 922.3 6.1 C 936.1 6.6 935.2 5 942 9.1 C 948.8 18.5 941.7 33 941.9 33 C 942 33 944.1 17 942.6 9.1 C 941 5 933.1 7.5 937.5 10.6 C 941.8 13.7 950.1 8.4 955 18 C 955 27.6 951.6 24 951.4 38 C 951.2 52 954.7 44 954.4 58 C 954.2 72 952.6 64 950.6 78 C 948.7 92 948.7 84 948.9 98 C 949 112 950.4 104 951.1 118 C 951.7 132 949.3 124 950.7 138 C 952.1 152 955 144 955 158 C 953.7 172 948.2 164 947 178 C 945.8 192 949.9 184 951.4 198 C 953 212 951.7 204 951.4 218 C 951 232 950.3 224 950.4 238 C 950.5 252 951.4 244 951.7 258 C 952 272 951.5 264 951.2 278 C 951 292 951.2 284 951 298 C 950.8 312 954.8 320.3 950.6 318 C 946.3 315.7 944.6 286.8 938.9 291.4 C 933.3 295.9 940.1 317.1 934.4 331 C 928.7 331 919.9 331 922.5 331 C 925.2 329.4 942.1 328.1 942 326.5 C 941.9 324.8 936.1 327.1 922.3 326.3 C 908.6 325.4 916.4 322.6 902.7 324.1 C 888.9 325.6 896.8 328.6 883 330.6 C 869.3 331 877.1 330.4 863.4 329.9 C 849.6 329.4 857.5 328.8 843.7 329.2 C 829.9 329.6 837.8 331 824 331 C 810.3 330.5 818.1 327.8 804.4 327.8 C 790.6 327.8 798.5 329.9 784.7 331 C 771 331 778.8 331 765.1 331 C 751.3 329.5 759.2 327.4 745.4 326.6 C 731.6 325.8 739.5 327.7 725.7 328.7 C 712 329.8 719.8 328.8 706.1 329.6 C 692.3 330.4 700.2 331 686.4 331 C 672.7 330.5 680.5 328 666.8 328 C 653 328 660.9 330 647.1 331 C 633.3 331 641.2 331 627.4 331 C 613.7 331 621.5 331 607.8 331 C 594 330.3 601.9 328.9 588.1 328.9 C 574.4 328.9 582.2 331 568.5 331 C 554.7 330.2 562.6 327.3 548.8 326.7 C 535 326.1 542.9 327.8 529.1 329.3 C 515.4 330.8 523.3 331 509.5 331 C 495.7 330 503.6 326.5 489.8 326.5 C 476.1 326.5 483.9 330.5 470.2 331 C 456.4 331 464.3 328 450.5 328 C 436.7 328 444.6 329.9 430.9 331 C 417.1 331 425 331 411.2 331 C 397.4 330.3 405.3 329.4 391.5 329.1 C 377.8 328.8 385.6 330.1 371.9 330.2 C 358.1 330.3 366 329.1 352.2 329.4 C 338.5 329.6 346.3 331 332.6 331 C 318.8 331 326.7 331 312.9 329.4 C 299.1 327.1 307 324.4 293.2 324.4 C 279.5 324.4 287.3 327.9 273.6 329.3 C 259.8 330.7 267.7 329.3 253.9 328.3 C 240.2 327.4 248 325.7 234.3 326.6 C 220.5 327.5 228.4 329.5 214.6 331 C 200.8 331 208.7 331 194.9 331 C 181.2 330.4 189 329.2 175.3 329.2 C 161.5 329.2 169.4 330.7 155.6 331 C 141.9 331 149.7 330.3 136 329.9 C 122.2 329.5 130.1 331 116.3 329.8 C 102.5 328.7 110.4 327.9 96.6 326.6 C 82.9 325.3 90.7 324.7 77 326.2 C 63.2 327.6 71.1 329.6 57.3 330.7 C 43.6 331 51.4 329.4 37.7 329.3 C 23.9 329.3 21.4 331 18 330.6 C 14.6 329.4 29.3 329.4 28 325.9 C 26.7 322.4 17.5 320 14.2 320.6 C 10.9 321.2 20.5 328.5 18.6 327.6 C 16.7 326.7 10.7 328.4 8.7 318 C 6.8 307.6 14.3 312 13 298 C 11.7 284 7.1 292 5 278 C 5 264 6.5 272 7 258 C 7.6 244 6.1 252 6.6 238 C 7.1 224 9 232 8.5 218 C 7.9 204 5 212 5 198 C 6.6 184 10.5 192 13 178 C 15.5 164 14.5 172 12.2 158 C 9.8 144 8.9 152 6.4 138 C 5 124 5.5 132 5 118 C 5 104 5 112 5 98 C 5.7 84 6.3 92 7.1 78 C 7.9 64 7.1 72 7.3 58 C 7.5 44 5.7 52 7.7 38 C 9.7 24 9.1 22.4 13 18 C 16.9 13.6 21.5 21.7 18.7 25.4 C 15.9 29.1 5 35.2 5 28.5 C 7.3 21.8 20.8 13 25.4 6.2 C 29.9 5 13.7 7.3 18 9.3 Z" fill="none" stroke="#D4AD6A" stroke-width="8" stroke-linejoin="round" stroke-linecap="round"/></g>
  <g id="inner_dashed_border" clip-path="url(#clip_7)"><path d="M 30 47 C 30 41.5 34.5 37 40 37 L 920 37 C 925.5 37 930 41.5 930 47 L 930 298 C 930 303.5 925.5 308 920 308 L 40 308 C 34.5 308 30 303.5 30 298 Z" fill="none" stroke="#B05A3A" stroke-width="6" stroke-dasharray="18,12" stroke-linejoin="round" stroke-linecap="round"/></g>
</svg>