<svg xmlns="http://www.w3.org/2000/svg" viewBox="0 0 960 336" width="960" height="336">
  <defs><clipPath id="clip_3"><path d="M 18 9.6 C 28.3 5 23.9 6.6 37.7 5 C 51.4 5 43.6 5 57.3 5 C 71.1 5.9 63.2 6.8 77 7.5 C 90.7 8.2 82.9 7.3 96.6 7 C 110.4 6.7 102.5 6.6 116.3 6.6 C 130.1 6.5 122.2 5.9 136 6.8 C 149.7 7.8 141.9 9.9 155.6 9.2 C 169.4 8.6 161.5 6.5 175.3 5 C 189 5 181.2 5 194.9 5 C 208.7 5 200.8 5 214.6 5 C 228.4 5.5 220.5 6.5 234.3 6.5 C 248 6.5 240.2 5.5 253.9 5 C 267.7 5 259.8 5 273.6 5 C 287.3 8 279.5 13.5 293.2 13.5 C 307 13.5 299.1 6.3 312.9 5 C 326.7 5 318.8 8.4 332.6 9.7 C 346.3 11.1 338.5 10.4 352.2 8.8 C 366 7.1 358.1 5.1 371.9 5 C 385.6 5 377.8 8 391.5 8.5 C 405.3 8.9 397.4 5.2 411.2 6.4 C 425 7.6 417.1 8.1 430.9 12 C 444.6 15.8 436.7 19 450.5 17.4 C 464.3 15.9 456.4 11.9 470.2 7.5 C 483.9 5 476.1 5 489.8 5 C 503.6 5.6 495.7 8.2 509.5 9.1 C 523.3 10 515.4 8.3 529.1 7.7 C 542.9 7 535 7.2 548.8 7.3 C 562.6 7.3 554.7 8.5 568.5 7.7 C 582.2 7 574.4 5.2 588.1 5 C 601.9 5 594 5.7 607.8 7.3 C 621.5 8.8 613.7 8.6 627.4 9.4 C 641.2 10.3 633.3 10.5 647.1 9.6 C 660.9 8.8 653 7.3 666.8 7 C 680.5 6.7 672.7 9.2 686.4 8.8 C 700.2 8.5 692.3 7.4 706.1 6.1 C 719.8 5 712 5.4 725.7 5 C 739.5 5 731.6 5 745.4 5 C 759.2 5 751.3 5 765.1 5 C 778.8 5.3 771 5.7 784.7 5.7 C 798.5 5.7 790.6 5 804.4 5 C 818.1 6.1 810.3 6.6 824 8.8 C 837.8 11 829.9 11.9 843.7 11.3 C 857.5 10.7 849.6 8 863.4 7.1 C 877.1 6.1 869.3 8.3 883 8.6 C 896.8 8.8 888.9 9.1 902.7 7.8 C 916.4 6.6 908.6 5.1 922.3 5 C 936.1 5 937.7 6.7 942 7.6 C 946.3 8.6 940.1 5 934.6 7.7 C 929.1 14.2 920.1 22.4 926.4 26.1 C 932.7 29.9 943.5 21.3 952.5 18.5 C 955 15.6 951.5 11.2 952.2 18 C 952.9 24.8 954.7 24 954.5 38 C 954.3 52 952.6 44 951.5 58 C 950.5 72 951.8 64 951.5 78 C 951.2 92 950.6 84 950.7 98 C 950.8 112 950.2 104 951.7 118 C 953.2 132 955 124 955 138 C 953.5 152 947.4 144 947.4 158 C 947.3 172 952.2 164 954.9 178 C 955 192 955 184 955 198 C 955 212 955 204 955 218 C 955 232 955 224 955 238 C 954.2 252 954.1 244 952.7 258 C 951.4 272 950.9 264 951 278 C 951.2 292 951.8 284 953.2 298 C 954.6 312 955 312.7 955 318 C 947.9 323.3 937.6 314.7 932.9 313.2 C 928.2 311.7 934.9 313.5 941.6 313.7 C 948.2 313.9 951.8 308.8 951.9 313.8 C 952.1 318.8 952.3 321.9 942 327.9 C 931.7 331 936.1 329.9 922.3 331 C 908.6 331 916.4 331 902.7 331 C 888.9 331 896.8 331 883 331 C 869.3 331 877.1 331 863.4 331 C 849.6 329.4 857.5 327.5 843.7 326.5 C 829.9 325.6 837.8 328.1 824 328.3 C 810.3 328.5 818.1 326 804.4 327 C 790.6 327.9 798.5 329.6 784.7 331 C 771 331 778.8 331 765.1 331 C 751.3 329.5 759.2 329.5 745.4 326.8 C 731.6 324.1 739.5 324.2 725.7 323.3 C 712 322.3 719.8 324.2 706.1 324.2 C 692.3 324.2 700.2 321.5 686.4 323.3 C 672.7 325.1 680.5 327.4 666.8 329.2 C 653 331 660.9 328.2 647.1 328.4 C 633.3 328.6 641.2 329 627.4 329.8 C 613.7 330.5 621.5 331 607.8 330.5 C 594 329.2 601.9 325.9 588.1 326.1 C 574.4 326.2 582.2 329.3 568.5 331 C 554.7 331 562.6 331 548.8 331 C 535 331 542.9 331 529.1 331 C 515.4 329.5 523.3 329.5 509.5 326.7 C 495.7 323.9 503.6 321.5 489.8 323 C 476.1 324.5 483.9 329.6 470.2 331 C 456.4 331 464.3 326.9 450.5 326.9 C 436.7 326.9 444.6 329.6 430.9 331 C 417.1 331 425 331 411.2 331 C 397.4 331 405.3 331 391.5 331 C 377.8 331 385.6 331 371.9 331 C 358.1 331 366 331 352.2 331 C 338.5 328.3 346.3 324.3 332.6 323.3 C 318.8 322.2 326.7 326.7 312.9 327.9 C 299.1 329.2 307 328.5 293.2 326.8 C 279.5 325.1 287.3 321.5 273.6 323 C 259.8 324.5 267.7 328.9 253.9 331 C 240.2 331 248 329.3 234.3 329 C 220.5 328.6 228.4 329.5 214.6 330 C 200.8 330.6 208.7 330.3 194.9 330.6 C 181.2 330.9 189 331 175.3 331 C 161.5 329.6 169.4 326.5 155.6 326.5 C 141.9 326.5 149.7 329.7 136 331 C 122.2 331 130.1 331 116.3 330.1 C 102.5 328.4 110.4 328 96.6 326.2 C 82.9 324.3 90.7 323.5 77 324.8 C 63.2 326.2 71.1 328.9 57.3 330.1 C 43.6 331 51.4 329.2 37.7 328.2 C 23.9 327.2 26.8 326.3 18 327.3 C 9.2 328.2 12.3 331 12.4 331 C 12.4 329.3 16.2 329.7 18.1 322.4 C 20.1 315.1 22.3 311.7 18 310.2 C 13.7 308.6 10.4 322.3 5.8 318 C 5 313.7 5.3 312 5 298 C 5 284 5 292 5 278 C 5 264 5 272 5 258 C 5 244 5 252 5 238 C 5.8 224 5.7 232 7.4 218 C 9.1 204 10.8 212 9.9 198 C 9.1 184 5 192 5 178 C 5 164 8.9 172 9.9 158 C 11 144 8 152 7.9 138 C 7.8 124 10.2 132 9.6 118 C 9.1 104 7.7 112 6.4 98 C 5 84 6.3 92 5.8 78 C 5.4 64 5 72 5 58 C 6.1 44 9.1 52 9.1 38 C 9.1 24 6.4 27.6 5 18 C 5 8.4 5 14.6 5 10.6 C 8.8 6.7 14.8 5 15.9 6.7 C 17 10.1 7.4 19.4 8.2 20.4 C 8.9 21.4 7.7 15 18 9.6 Z"/></clipPath></defs>
  <g id="background"><path d="M 18 9.6 C 28.3 5 23.9 6.6 37.7 5 C 51.4 5 43.6 5 57.3 5 C 71.1 5.9 63.2 6.8 77 7.5 C 90.7 8.2 82.9 7.3 96.6 7 C 110.4 6.7 102.5 6.6 116.3 6.6 C 130.1 6.5 122.2 5.9 136 6.8 C 149.7 7.8 141.9 9.9 155.6 9.2 C 169.4 8.6 161.5 6.5 175.3 5 C 189 5 181.2 5 194.9 5 C 208.7 5 200.8 5 214.6 5 C 228.4 5.5 220.5 6.5 234.3 6.5 C 248 6.5 240.2 5.5 253.9 5 C 267.7 5 259.8 5 273.6 5 C 287.3 8 279.5 13.5 293.2 13.5 C 307 13.5 299.1 6.3 312.9 5 C 326.7 5 318.8 8.4 332.6 9.7 C 346.3 11.1 338.5 10.4 352.2 8.8 C 366 7.1 358.1 5.1 371.9 5 C 385.6 5 377.8 8 391.5 8.5 C 405.3 8.9 397.4 5.2 411.2 6.4 C 425 7.6 417.1 8.1 430.9 12 C 444.6 15.8 436.7 19 450.5 17.4 C 464.3 15.9 456.4 11.9 470.2 7.5 C 483.9 5 476.1 5 489.8 5 C 503.6 5.6 495.7 8.2 509.5 9.1 C 523.3 10 515.4 8.3 529.1 7.7 C 542.9 7 535 7.2 548.8 7.3 C 562.6 7.3 554.7 8.5 568.5 7.7 C 582.2 7 574.4 5.2 588.1 5 C 601.9 5 594 5.7 607.8 7.3 C 621.5 8.8 613.7 8.6 627.4 9.4 C 641.2 10.3 633.3 10.5 647.1 9.6 C 660.9 8.8 653 7.3 666.8 7 C 680.5 6.7 672.7 9.2 686.4 8.8 C 700.2 8.5 692.3 7.4 706.1 6.1 C 719.8 5 712 5.4 725.7 5 C 739.5 5 731.6 5 745.4 5 C 759.2 5 751.3 5 765.1 5 C 778.8 5.3 771 5.7 784.7 5.7 C 798.5 5.7 790.6 5 804.4 5 C 818.1 6.1 810.3 6.6 824 8.8 C 837.8 11 829.9 11.9 843.7 11.3 C 857.5 10.7 849.6 8 863.4 7.1 C 877.1 6.1 869.3 8.3 883 8.6 C 896.8 8.8 888.9 9.1 902.7 7.8 C 916.4 6.6 908.6 5.1 922.3 5 C 936.1 5 937.7 6.7 942 7.6 C 946.3 8.6 940.1 5 934.6 7.7 C 929.1 14.2 920.1 22.4 926.4 26.1 C 932.7 29.9 943.5 21.3 952.5 18.5 C 955 15.6 951.5 11.2 952.2 18 C 952.9 24.8 954.7 24 954.5 38 C 954.3 52 952.6 44 951.5 58 C 950.5 72 951.8 64 951.5 78 C 951.2 92 950.6 84 950.7 98 C 950.8 112 950.2 104 951.7 118 C 953.2 132 955 124 955 138 C 953.5 152 947.4 144 947.4 158 C 947.3 172 952.2 164 954.9 178 C 955 192 955 184 955 198 C 955 212 955 204 955 218 C 955 232 955 224 955 238 C 954.2 252 954.1 244 952.7 258 C 951.4 272 950.9 264 951 278 C 951.2 292 951.8 284 953.2 298 C 954.6 312 955 312.7 955 318 C 947.9 323.3 937.6 314.7 932.9 313.2 C 928.2 311.7 934.9 313.5 941.6 313.7 C 948.2 313.9 951.8 308.8 951.9 313.8 C 952.1 318.8 952.3 321.9 942 327.9 C 931.7 331 936.1 329.9 922.3 331 C 908.6 331 916.4 331 902.7 331 C 888.9 331 896.8 331 883 331 C 869.3 331 877.1 331 863.4 331 C 849.6 329.4 857.5 327.5 843.7 326.5 C 829.9 325.6 837.8 328.1 824 328.3 C 810.3 328.5 818.1 326 804.4 327 C 790.6 327.9 798.5 329.6 784.7 331 C 771 331 778.8 331 765.1 331 C 751.3 329.5 759.2 329.5 745.4 326.8 C 731.6 324.1 739.5 324.2 725.7 323.3 C 712 322.3 719.8 324.2 706.1 324.2 C 692.3 324.2 700.2 321.5 686.4 323.3 C 672.7 325.1 680.5 327.4 666.8 329.2 C 653 331 660.9 328.2 647.1 328.4 C 633.3 328.6 641.2 329 627.4 329.8 C 613.7 330.5 621.5 331 607.8 330.5 C 594 329.2 601.9 325.9 588.1 326.1 C 574.4 326.2 582.2 329.3 568.5 331 C 554.7 331 562.6 331 548.8 331 C 535 331 542.9 331 529.1 331 C 515.4 329.5 523.3 329.5 509.5 326.7 C 495.7 323.9 503.6 321.5 489.8 323 C 476.1 324.5 483.9 329.6 470.2 331 C 456.4 331 464.3 326.9 450.5 326.9 C 436.7 326.9 444.6 329.6 430.9 331 C 417.1 331 425 331 411.2 331 C 397.4 331 405.3 331 391.5 331 C 377.8 331 385.6 331 371.9 331 C 358.1 331 366 331 352.2 331 C 338.5 328.3 346.3 324.3 332.6 323.3 C 318.8 322.2 326.7 326.7 312.9 327.9 C 299.1 329.2 307 328.5 293.2 326.8 C 279.5 325.1 287.3 321.5 273.6 323 C 259.8 324.5 267.7 328.9 253.9 331 C 240.2 331 248 329.3 234.3 329 C 220.5 328.6 228.4 329.5 214.6 330 C 200.8 330.6 208.7 330.3 194.9 330.6 C 181.2 330.9 189 331 175.3 331 C 161.5 329.6 169.4 326.5 155.6 326.5 C 141.9 326.5 149.7 329.7 136 331 C 122.2 331 130.1 331 116.3 330.1 C 102.5 328.4 110.4 328 96.6 326.2 C 82.9 324.3 90.7 323.5 77 324.8 C 63.2 326.2 71.1 328.9 57.3 330.1 C 43.6 331 51.4 329.2 37.7 328.2 C 23.9 327.2 26.8 326.3 18 327.3 C 9.2 328.2 12.3 331 12.4 331 C 12.4 329.3 16.2 329.7 18.1 322.4 C 20.1 315.1 22.3 311.7 18 310.2 C 13.7 308.6 10.4 322.3 5.8 318 C 5 313.7 5.3 312 5 298 C 5 284 5 292 5 278 C 5 264 5 272 5 258 C 5 244 5 252 5 238 C 5.8 224 5.7 232 7.4 218 C 9.1 204 10.8 212 9.9 198 C 9.1 184 5 192 5 178 C 5 164 8.9 172 9.9 158 C 11 144 8 152 7.9 138 C 7.8 124 10.2 132 9.6 118 C 9.1 104 7.7 112 6.4 98 C 5 84 6.3 92 5.8 78 C 5.4 64 5 72 5 58 C 6.1 44 9.1 52 9.1 38 C 9.1 24 6.4 27.6 5 18 C 5 8.4 5 14.6 5 10.6 C 8.8 6.7 14.8 5 15.9 6.7 C 17 10.1 7.4 19.4 8.2 20.4 C 8.9 21.4 7.7 15 18 9.6 Z" fill="#F0E4C8"/></g>
  <g id="outer_border"><path d="M 18 9.6 C 28.3 5 23.9 6.6 37.7 5 C 51.4 5 43.6 5 57.3 5 C 71.1 5.9 63.2 6.8 77 7.5 C 90.7 8.2 82.9 7.3 96.6 7 C 110.4 6.7 102.5 6.6 116.3 6.6 C 130.1 6.5 122.2 5.9 136 6.8 C 149.7 7.8 141.9 9.9 155.6 9.2 C 169.4 8.6 161.5 6.5 175.3 5 C 189 5 181.2 5 194.9 5 C 208.7 5 200.8 5 214.6 5 C 228.4 5.5 220.5 6.5 234.3 6.5 C 248 6.5 240.2 5.5 253.9 5 C 267.7 5 259.8 5 273.6 5 C 287.3 8 279.5 13.5 293.2 13.5 C 307 13.5 299.1 6.3 312.9 5 C 326.7 5 318.8 8.4 332.6 9.7 C 346.3 11.1 338.5 10.4 352.2 8.8 C 366 7.1 358.1 5.1 371.9 5 C 385.6 5 377.8 8 391.5 8.5 C 405.3 8.9 397.4 5.2 411.2 6.4 C 425 7.6 417.1 8.1 430.9 12 C 444.6 15.8 436.7 19 450.5 17.4 C 464.3 15.9 456.4 11.9 470.2 7.5 C 483.9 5 476.1 5 489.8 5 C 503.6 5.6 495.7 8.2 509.5 9.1 C 523.3 10 515.4 8.3 529.1 7.7 C 542.9 7 535 7.2 548.8 7.3 C 562.6 7.3 554.7 8.5 568.5 7.7 C 582.2 7 574.4 5.2 588.1 5 C 601.9 5 594 5.7 607.8 7.3 C 621.5 8.8 613.7 8.6 627.4 9.4 C 641.2 10.3 633.3 10.5 647.1 9.6 C 660.9 8.8 653 7.3 666.8 7 C 680.5 6.7 672.7 9.2 686.4 8.8 C 700.2 8.5 692.3 7.4 706.1 6.1 C 719.8 5 712 5.4 725.7 5 C 739.5 5 731.6 5 745.4 5 C 759.2 5 751.3 5 765.1 5 C 778.8 5.3 771 5.7 784.7 5.7 C 798.5 5.7 790.6 5 804.4 5 C 818.1 6.1 810.3 6.6 824 8.8 C 837.8 11 829.9 11.9 843.7 11.3 C 857.5 10.7 849.6 8 863.4 7.1 C 877.1 6.1 869.3 8.3 883 8.6 C 896.8 8.8 888.9 9.1 902.7 7.8 C 916.4 6.6 908.6 5.1 922.3 5 C 936.1 5 937.7 6.7 942 7.6 C 946.3 8.6 940.1 5 934.6 7.7 C 929.1 14.2 920.1 22.4 926.4 26.1 C 932.7 29.9 943.5 21.3 952.5 18.5 C 955 15.6 951.5 11.2 952.2 18 C 952.9 24.8 954.7 24 954.5 38 C 954.3 52 952.6 44 951.5 58 C 950.5 72 951.8 64 951.5 78 C 951.2 92 950.6 84 950.7 98 C 950.8 112 950.2 104 951.7 118 C 953.2 132 955 124 955 138 C 953.5 152 947.4 144 947.4 158 C 947.3 172 952.2 164 954.9 178 C 955 192 955 184 955 198 C 955 212 955 204 955 218 C 955 232 955 224 955 238 C 954.2 252 954.1 244 952.7 258 C 951.4 272 950.9 264 951 278 C 951.2 292 951.8 284 953.2 298 C 954.6 312 955 312.7 955 318 C 947.9 323.3 937.6 314.7 932.9 313.2 C 928.2 311.7 934.9 313.5 941.6 313.7 C 948.2 313.9 951.8 308.8 951.9 313.8 C 952.1 318.8 952.3 321.9 942 327.9 C 931.7 331 936.1 329.9 922.3 331 C 908.6 331 916.4 331 902.7 331 C 888.9 331 896.8 331 883 331 C 869.3 331 877.1 331 863.4 331 C 849.6 329.4 857.5 327.5 843.7 326.5 C 829.9 325.6 837.8 328.1 824 328.3 C 810.3 328.5 818.1 326 804.4 327 C 790.6 327.9 798.5 329.6 784.7 331 C 771 331 778.8 331 765.1 331 C 751.3 329.5 759.2 329.5 745.4 326.8 C 731.6 324.1 739.5 324.2 725.7 323.3 C 712 322.3 719.8 324.2 706.1 324.2 C 692.3 324.2 700.2 321.5 686.4 323.3 C 672.7 325.1 680.5 327.4 666.8 329.2 C 653 331 660.9 328.2 647.1 328.4 C 633.3 328.6 641.2 329 627.4 329.8 C 613.7 330.5 621.5 331 607.8 330.5 C 594 329.2 601.9 325.9 588.1 326.1 C 574.4 326.2 582.2 329.3 568.5 331 C 554.7 331 562.6 331 548.8 331 C 535 331 542.9 331 529.1 331 C 515.4 329.5 523.3 329.5 509.5 326.7 C 495.7 323.9 503.6 321.5 489.8 323 C 476.1 324.5 483.9 329.6 470.2 331 C 456.4 331 464.3 326.9 450.5 326.9 C 436.7 326.9 444.6 329.6 430.9 331 C 417.1 331 425 331 411.2 331 C 397.4 331 405.3 331 391.5 331 C 377.8 331 385.6 331 371.9 331 C 358.1 331 366 331 352.2 331 C 338.5 328.3 346.3 324.3 332.6 323.3 C 318.8 322.2 326.7 326.7 312.9 327.9 C 299.1 329.2 307 328.5 293.2 326.8 C 279.5 325.1 287.3 321.5 273.6 323 C 259.8 324.5 267.7 328.9 253.9 331 C 240.2 331 248 329.3 234.3 329 C 220.5 328.6 228.4 329.5 214.6 330 C 200.8 330.6 208.7 330.3 194.9 330.6 C 181.2 330.9 189 331 175.3 331 C 161.5 329.6 169.4 326.5 155.6 326.5 C 141.9 326.5 149.7 329.7 136 331 C 122.2 331 130.1 331 116.3 330.1 C 102.5 328.4 110.4 328 96.6 326.2 C 82.9 324.3 90.7 323.5 77 324.8 C 63.2 326.2 71.1 328.9 57.3 330.1 C 43.6 331 51.4 329.2 37.7 328.2 C 23.9 327.2 26.8 326.3 18 327.3 C 9.2 328.2 12.3 331 12.4 331 C 12.4 329.3 16.2 329.7 18.1 322.4 C 20.1 315.1 22.3 311.7 18 310.2 C 13.7 308.6 10.4 322.3 5.8 318 C 5 313.7 5.3 312 5 298 C 5 284 5 292 5 278 C 5 264 5 272 5 258 C 5 244 5 252 5 238 C 5.8 224 5.7 232 7.4 218 C 9.1 204 10.8 212 9.9 198 C 9.1 184 5 192 5 178 C 5 164 8.9 172 9.9 158 C 11 144 8 152 7.9 138 C 7.8 124 10.2 132 9.6 118 C 9.1 104 7.7 112 6.4 98 C 5 84 6.3 92 5.8 78 C 5.4 64 5 72 5 58 C 6.1 44 9.1 52 9.1 38 C 9.1 24 6.4 27.6 5 18 C 5 8.4 5 14.6 5 10.6 C 8.8 6.7 14.8 5 15.9 6.7 C 17 10.1 7.4 19.4 8.2 20.4 C 8.9 21.4 7.7 15 18 9.6 Z" fill="none" stroke="#D4AD6A" stroke-width="8" stroke-linejoin="round" stroke-linecap="round"/></g>
  <g id="inner_dashed_border" clip-path="url(#clip_3)"><path d="M 30 47 C 30 41.5 34.5 37 40 37 L 920 37 C 925.5 37 930 41.5 930 47 L 930 298 C 930 303.5 925.5 308 920 308 L 40 308 C 34.5 308 30 303.5 30 298 Z" fill="none" stroke="#B05A3A" stroke-width="6" stroke-dasharray="18,12" stroke-linejoin="round" stroke-linecap="round"/></g>
</svg>