<svg xmlns="http://www.w3.org/2000/svg" viewBox="0 0 960 336" width="960" height="336">
  <defs><clipPath id="clip_6"><path d="M 18 6.6 C 29.4 5 23.9 5 37.7 5.7 C 51.4 6.8 43.6 9.5 57.3 9.5 C 71.1 9.5 63.2 6.2 77 5.7 C 90.7 5.2 82.9 8.2 96.6 8.1 C 110.4 8.1 102.5 5 116.3 5.5 C 130.1 8.6 122.2 17.2 136 17 C 149.7 16.9 141.9 9.2 155.6 5 C 169.4 5 161.5 5 175.3 5 C 189 5.2 181.2 5.7 194.9 5.7 C 208.7 5.7 200.8 5 214.6 5 C 228.4 5.6 220.5 6.9 234.3 7.3 C 248 7.6 240.2 5.5 253.9 6 C 267.7 6.6 259.8 8.5 273.6 8.8 C 287.3 9.1 279.5 7.4 293.2 7 C 307 6.5 299.1 8.2 312.9 7.5 C 326.7 6.9 318.8 5.4 332.6 5 C 346.3 5 338.5 5 352.2 6.5 C 366 8.1 358.1 8.4 371.9 9.7 C 385.6 11 377.8 6 391.5 10.2 C 405.3 14.3 397.4 18.2 411.2 21.6 C 425 25 417.1 25.7 430.9 19.9 C 444.6 14.1 436.7 10.2 450.5 5 C 464.3 5 456.4 5 470.2 5 C 483.9 5.8 476.1 7.4 489.8 7.4 C 503.6 7.4 495.7 5 509.5 5 C 523.3 5.7 515.4 9.4 529.1 9.4 C 542.9 9.4 535 6.5 548.8 5 C 562.6 5 554.7 5 568.5 5 C 582.2 5.8 574.4 7.1 588.1 7.1 C 601.9 7.1 594 5 607.8 5 C 621.5 7.7 613.7 14.4 627.4 14.9 C 641.2 15.3 633.3 8.9 647.1 6.3 C 660.9 5 653 6.6 666.8 7.4 C 680.5 8.3 672.7 9.7 686.4 8.8 C 700.2 8 692.3 6.3 706.1 5 C 719.8 5 712 5 725.7 5 C 739.5 5 731.6 5 745.4 5 C 759.2 6.1 751.3 6.4 765.1 8 C 778.8 9.7 771 10.8 784.7 9.7 C 798.5 8.6 790.6 5 804.4 5 C 818.1 9.9 810.3 22 824 23.6 C 837.8 25.3 829.9 16.3 843.7 9.8 C 857.5 5 849.6 5.1 863.4 5 C 877.1 5 869.3 8 883 9.5 C 896.8 11 888.9 9.7 902.7 9.3 C 916.4 8.9 908.6 9.9 922.3 8.4 C 936.1 6.9 936 6.2 942 5 C 948 5 934.9 5 939.4 5 C 944 14 951.7 22.6 955 30.7 C 955 38.7 951.8 32.5 949 28 C 946.2 23.6 945.3 14.5 947 18 C 948.7 21.5 951.6 24 953.8 38 C 955 52 954.2 44 953.5 58 C 952.7 72 951.2 64 951.7 78 C 952.2 92 953.8 84 955 98 C 955 112 955 104 955 118 C 953.8 132 953.2 124 951.5 138 C 949.8 152 949.1 144 950.1 158 C 951.1 172 953.4 164 954.3 178 C 955 192 952.5 184 952.8 198 C 953 212 954.8 204 955 218 C 955 232 954.5 224 953.4 238 C 952.3 252 951.4 244 951.9 258 C 952.5 272 955 264 955 278 C 954.7 292 952.1 284 951.1 298 C 950 312 953.4 315.5 951.9 318 C 950.5 320.5 946.2 302.1 947 305.2 C 947.8 308.4 955 320.6 954.2 327 C 953 331 947.6 322.6 943.3 323.4 C 939.1 324.2 949.3 329.4 942 329.3 C 934.7 329.3 936.1 323.2 922.3 323.3 C 908.6 323.3 916.4 327.9 902.7 329.5 C 888.9 331 896.8 330.4 883 328.1 C 869.3 325.8 877.1 323.5 863.4 323 C 849.6 322.5 857.5 324 843.7 326.8 C 829.9 329.6 837.8 330 824 331 C 810.3 331 818.1 329.8 804.4 329.8 C 790.6 329.8 798.5 330.6 784.7 331 C 771 331 778.8 331 765.1 331 C 751.3 329.8 759.2 327.7 745.4 327.7 C 731.6 327.7 739.5 329.8 725.7 331 C 712 331 719.8 331 706.1 331 C 692.3 331 700.2 331 686.4 331 C 672.7 330.8 680.5 330.3 666.8 330.3 C 653 330.3 660.9 330.8 647.1 331 C 633.3 331 641.2 331 627.4 331 C 613.7 330.1 621.5 329.3 607.8 328.4 C 594 327.5 601.9 328.3 588.1 328.4 C 574.4 328.4 582.2 329.3 568.5 328.6 C 554.7 327.9 562.6 325.4 548.8 326.2 C 535 327.1 542.9 329.3 529.1 331 C 515.4 331 523.3 331 509.5 331 C 495.7 329.6 503.6 327 489.8 327 C 476.1 327 483.9 331 470.2 331 C 456.4 329.6 464.3 323 450.5 323 C 436.7 323 444.6 328.9 430.9 331 C 417.1 331 425 329.1 411.2 329.1 C 397.4 329.1 405.3 330.6 391.5 331 C 377.8 331 385.6 331 371.9 330.2 C 358.1 328.6 366 328.2 352.2 326.3 C 338.5 324.4 346.3 326 332.6 324.9 C 318.8 323.7 326.7 323.1 312.9 323 C 299.1 322.9 307 322.2 293.2 324.7 C 279.5 327.2 287.3 329.7 273.6 330.2 C 259.8 330.7 267.7 326.3 253.9 326.2 C 240.2 326.1 248 328.1 234.3 329.8 C 220.5 331 228.4 331 214.6 331 C 200.8 330.8 208.7 329.9 194.9 329.2 C 181.2 328.4 189 328.3 175.3 329 C 161.5 329.6 169.4 331 155.6 331 C 141.9 330.1 149.7 327.1 136 326.5 C 122.2 325.9 130.1 329.3 116.3 329.3 C 102.5 329.3 110.4 326.4 96.6 326.4 C 82.9 326.4 90.7 328.5 77 329.3 C 63.2 330 71.1 328.9 57.3 328.7 C 43.6 328.5 51.4 328.7 37.7 328.7 C 23.9 328.8 29.4 328.1 18 328.9 C 6.6 329.7 9.6 330.3 5 331 C 5 331 5 331 5 331 C 5.4 329.2 5.4 330.3 6.2 325.8 C 7.1 321.2 6.9 327.7 7.5 318 C 8 308.3 8.4 312 7.8 298 C 7.1 284 6.6 292 5.6 278 C 5 264 5.2 272 5 258 C 5 244 5 252 5.2 238 C 8 224 12.1 232 13 218 C 13.9 204 10.3 212 7.9 198 C 5.5 184 7.1 192 6.1 178 C 5.1 164 5 172 5 158 C 6.3 144 8.1 152 9.7 138 C 11.4 124 10.7 132 9.7 118 C 8.6 104 8.3 112 6.7 98 C 5 84 5 92 5 78 C 5.6 64 6.6 72 8.3 58 C 10 44 11 52 9.8 38 C 8.6 24 6.1 22.8 5 18 C 5 13.2 6.6 28.8 6.6 24.3 C 6.6 19.8 5.5 8.7 5 5.1 C 5 5 5 13.4 5 14 C 9.6 14.5 6.6 9.4 18 6.6 Z"/></clipPath></defs>
  <g id="background"><path d="M 18 6.6 C 29.4 5 23.9 5 37.7 5.7 C 51.4 6.8 43.6 9.5 57.3 9.5 C 71.1 9.5 63.2 6.2 77 5.7 C 90.7 5.2 82.9 8.2 96.6 8.1 C 110.4 8.1 102.5 5 116.3 5.5 C 130.1 8.6 122.2 17.2 136 17 C 149.7 16.9 141.9 9.2 155.6 5 C 169.4 5 161.5 5 175.3 5 C 189 5.2 181.2 5.7 194.9 5.7 C 208.7 5.7 200.8 5 214.6 5 C 228.4 5.6 220.5 6.9 234.3 7.3 C 248 7.6 240.2 5.5 253.9 6 C 267.7 6.6 259.8 8.5 273.6 8.8 C 287.3 9.1 279.5 7.4 293.2 7 C 307 6.5 299.1 8.2 312.9 7.5 C 326.7 6.9 318.8 5.4 332.6 5 C 346.3 5 338.5 5 352.2 6.5 C 366 8.1 358.1 8.4 371.9 9.7 C 385.6 11 377.8 6 391.5 10.2 C 405.3 14.3 397.4 18.2 411.2 21.6 C 425 25 417.1 25.7 430.9 19.9 C 444.6 14.1 436.7 10.2 450.5 5 C 464.3 5 456.4 5 470.2 5 C 483.9 5.8 476.1 7.4 489.8 7.4 C 503.6 7.4 495.7 5 509.5 5 C 523.3 5.7 515.4 9.4 529.1 9.4 C 542.9 9.4 535 6.5 548.8 5 C 562.6 5 554.7 5 568.5 5 C 582.2 5.8 574.4 7.1 588.1 7.1 C 601.9 7.1 594 5 607.8 5 C 621.5 7.7 613.7 14.4 627.4 14.9 C 641.2 15.3 633.3 8.9 647.1 6.3 C 660.9 5 653 6.6 666.8 7.4 C 680.5 8.3 672.7 9.7 686.4 8.8 C 700.2 8 692.3 6.3 706.1 5 C 719.8 5 712 5 725.7 5 C 739.5 5 731.6 5 745.4 5 C 759.2 6.1 751.3 6.4 765.1 8 C 778.8 9.7 771 10.8 784.7 9.7 C 798.5 8.6 790.6 5 804.4 5 C 818.1 9.9 810.3 22 824 23.6 C 837.8 25.3 829.9 16.3 843.7 9.8 C 857.5 5 849.6 5.1 863.4 5 C 877.1 5 869.3 8 883 9.5 C 896.8 11 888.9 9.7 902.7 9.3 C 916.4 8.9 908.6 9.9 922.3 8.4 C 936.1 6.9 936 6.2 942 5 C 948 5 934.9 5 939.4 5 C 944 14 951.7 22.6 955 30.7 C 955 38.7 951.8 32.5 949 28 C 946.2 23.6 945.3 14.5 947 18 C 948.7 21.5 951.6 24 953.8 38 C 955 52 954.2 44 953.5 58 C 952.7 72 951.2 64 951.7 78 C 952.2 92 953.8 84 955 98 C 955 112 955 104 955 118 C 953.8 132 953.2 124 951.5 138 C 949.8 152 949.1 144 950.1 158 C 951.1 172 953.4 164 954.3 178 C 955 192 952.5 184 952.8 198 C 953 212 954.8 204 955 218 C 955 232 954.5 224 953.4 238 C 952.3 252 951.4 244 951.9 258 C 952.5 272 955 264 955 278 C 954.7 292 952.1 284 951.1 298 C 950 312 953.4 315.5 951.9 318 C 950.5 320.5 946.2 302.1 947 305.2 C 947.8 308.4 955 320.6 954.2 327 C 953 331 947.6 322.6 943.3 323.4 C 939.1 324.2 949.3 329.4 942 329.3 C 934.7 329.3 936.1 323.2 922.3 323.3 C 908.6 323.3 916.4 327.9 902.7 329.5 C 888.9 331 896.8 330.4 883 328.1 C 869.3 325.8 877.1 323.5 863.4 323 C 849.6 322.5 857.5 324 843.7 326.8 C 829.9 329.6 837.8 330 824 331 C 810.3 331 818.1 329.8 804.4 329.8 C 790.6 329.8 798.5 330.6 784.7 331 C 771 331 778.8 331 765.1 331 C 751.3 329.8 759.2 327.7 745.4 327.7 C 731.6 327.7 739.5 329.8 725.7 331 C 712 331 719.8 331 706.1 331 C 692.3 331 700.2 331 686.4 331 C 672.7 330.8 680.5 330.3 666.8 330.3 C 653 330.3 660.9 330.8 647.1 331 C 633.3 331 641.2 331 627.4 331 C 613.7 330.1 621.5 329.3 607.8 328.4 C 594 327.5 601.9 328.3 588.1 328.4 C 574.4 328.4 582.2 329.3 568.5 328.6 C 554.7 327.9 562.6 325.4 548.8 326.2 C 535 327.1 542.9 329.3 529.1 331 C 515.4 331 523.3 331 509.5 331 C 495.7 329.6 503.6 327 489.8 327 C 476.1 327 483.9 331 470.2 331 C 456.4 329.6 464.3 323 450.5 323 C 436.7 323 444.6 328.9 430.9 331 C 417.1 331 425 329.1 411.2 329.1 C 397.4 329.1 405.3 330.6 391.5 331 C 377.8 331 385.6 331 371.9 330.2 C 358.1 328.6 366 328.2 352.2 326.3 C 338.5 324.4 346.3 326 332.6 324.9 C 318.8 323.7 326.7 323.1 312.9 323 C 299.1 322.9 307 322.2 293.2 324.7 C 279.5 327.2 287.3 329.7 273.6 330.2 C 259.8 330.7 267.7 326.3 253.9 326.2 C 240.2 326.1 248 328.1 234.3 329.8 C 220.5 331 228.4 331 214.6 331 C 200.8 330.8 208.7 329.9 194.9 329.2 C 181.2 328.4 189 328.3 175.3 329 C 161.5 329.6 169.4 331 155.6 331 C 141.9 330.1 149.7 327.1 136 326.5 C 122.2 325.9 130.1 329.3 116.3 329.3 C 102.5 329.3 110.4 326.4 96.6 326.4 C 82.9 326.4 90.7 328.5 77 329.3 C 63.2 330 71.1 328.9 57.3 328.7 C 43.6 328.5 51.4 328.7 37.7 328.7 C 23.9 328.8 29.4 328.1 18 328.9 C 6.6 329.7 9.6 330.3 5 331 C 5 331 5 331 5 331 C 5.4 329.2 5.4 330.3 6.2 325.8 C 7.1 321.2 6.9 327.7 7.5 318 C 8 308.3 8.4 312 7.8 298 C 7.1 284 6.6 292 5.6 278 C 5 264 5.2 272 5 258 C 5 244 5 252 5.2 238 C 8 224 12.1 232 13 218 C 13.9 204 10.3 212 7.9 198 C 5.5 184 7.1 192 6.1 178 C 5.1 164 5 172 5 158 C 6.3 144 8.1 152 9.7 138 C 11.4 124 10.7 132 9.7 118 C 8.6 104 8.3 112 6.7 98 C 5 84 5 92 5 78 C 5.6 64 6.6 72 8.3 58 C 10 44 11 52 9.8 38 C 8.6 24 6.1 22.8 5 18 C 5 13.2 6.6 28.8 6.6 24.3 C 6.6 19.8 5.5 8.7 5 5.1 C 5 5 5 13.4 5 14 C 9.6 14.5 6.6 9.4 18 6.6 Z" fill="#F0E4C8"/></g>
  <g id="outer_border"><path d="M 18 6.6 C 29.4 5 23.9 5 37.7 5.7 C 51.4 6.8 43.6 9.5 57.3 9.5 C 71.1 9.5 63.2 6.2 77 5.7 C 90.7 5.2 82.9 8.2 96.6 8.1 C 110.4 8.1 102.5 5 116.3 5.5 C 130.1 8.6 122.2 17.2 136 17 C 149.7 16.9 141.9 9.2 155.6 5 C 169.4 5 161.5 5 175.3 5 C 189 5.2 181.2 5.7 194.9 5.7 C 208.7 5.7 200.8 5 214.6 5 C 228.4 5.6 220.5 6.9 234.3 7.3 C 248 7.6 240.2 5.5 253.9 6 C 267.7 6.6 259.8 8.5 273.6 8.8 C 287.3 9.1 279.5 7.4 293.2 7 C 307 6.5 299.1 8.2 312.9 7.5 C 326.7 6.9 318.8 5.4 332.6 5 C 346.3 5 338.5 5 352.2 6.5 C 366 8.1 358.1 8.4 371.9 9.7 C 385.6 11 377.8 6 391.5 10.2 C 405.3 14.3 397.4 18.2 411.2 21.6 C 425 25 417.1 25.7 430.9 19.9 C 444.6 14.1 436.7 10.2 450.5 5 C 464.3 5 456.4 5 470.2 5 C 483.9 5.8 476.1 7.4 489.8 7.4 C 503.6 7.4 495.7 5 509.5 5 C 523.3 5.7 515.4 9.4 529.1 9.4 C 542.9 9.4 535 6.5 548.8 5 C 562.6 5 554.7 5 568.5 5 C 582.2 5.8 574.4 7.1 588.1 7.1 C 601.9 7.1 594 5 607.8 5 C 621.5 7.7 613.7 14.4 627.4 14.9 C 641.2 15.3 633.3 8.9 647.1 6.3 C 660.9 5 653 6.6 666.8 7.4 C 680.5 8.3 672.7 9.7 686.4 8.8 C 700.2 8 692.3 6.3 706.1 5 C 719.8 5 712 5 725.7 5 C 739.5 5 731.6 5 745.4 5 C 759.2 6.1 751.3 6.4 765.1 8 C 778.8 9.7 771 10.8 784.7 9.7 C 798.5 8.6 790.6 5 804.4 5 C 818.1 9.9 810.3 22 824 23.6 C 837.8 25.3 829.9 16.3 843.7 9.8 C 857.5 5 849.6 5.1 863.4 5 C 877.1 5 869.3 8 883 9.5 C 896.8 11 888.9 9.7 902.7 9.3 C 916.4 8.9 908.6 9.9 922.3 8.4 C 936.1 6.9 936 6.2 942 5 C 948 5 934.9 5 939.4 5 C 944 14 951.7 22.6 955 30.7 C 955 38.7 951.8 32.5 949 28 C 946.2 23.6 945.3 14.5 947 18 C 948.7 21.5 951.6 24 953.8 38 C 955 52 954.2 44 953.5 58 C 952.7 72 951.2 64 951.7 78 C 952.2 92 953.8 84 955 98 C 955 112 955 104 955 118 C 953.8 132 953.2 124 951.5 138 C 949.8 152 949.1 144 950.1 158 C 951.1 172 953.4 164 954.3 178 C 955 192 952.5 184 952.8 198 C 953 212 954.8 204 955 218 C 955 232 954.5 224 953.4 238 C 952.3 252 951.4 244 951.9 258 C 952.5 272 955 264 955 278 C 954.7 292 952.1 284 951.1 298 C 950 312 953.4 315.5 951.9 318 C 950.5 320.5 946.2 302.1 947 305.2 C 947.8 308.4 955 320.6 954.2 327 C 953 331 947.6 322.6 943.3 323.4 C 939.1 324.2 949.3 329.4 942 329.3 C 934.7 329.3 936.1 323.2 922.3 323.3 C 908.6 323.3 916.4 327.9 902.7 329.5 C 888.9 331 896.8 330.4 883 328.1 C 869.3 325.8 877.1 323.5 863.4 323 C 849.6 322.5 857.5 324 843.7 326.8 C 829.9 329.6 837.8 330 824 331 C 810.3 331 818.1 329.8 804.4 329.8 C 790.6 329.8 798.5 330.6 784.7 331 C 771 331 778.8 331 765.1 331 C 751.3 329.8 759.2 327.7 745.4 327.7 C 731.6 327.7 739.5 329.8 725.7 331 C 712 331 719.8 331 706.1 331 C 692.3 331 700.2 331 686.4 331 C 672.7 330.8 680.5 330.3 666.8 330.3 C 653 330.3 660.9 330.8 647.1 331 C 633.3 331 641.2 331 627.4 331 C 613.7 330.1 621.5 329.3 607.8 328.4 C 594 327.5 601.9 328.3 588.1 328.4 C 574.4 328.4 582.2 329.3 568.5 328.6 C 554.7 327.9 562.6 325.4 548.8 326.2 C 535 327.1 542.9 329.3 529.1 331 C 515.4 331 523.3 331 509.5 331 C 495.7 329.6 503.6 327 489.8 327 C 476.1 327 483.9 331 470.2 331 C 456.4 329.6 464.3 323 450.5 323 C 436.7 323 444.6 328.9 430.9 331 C 417.1 331 425 329.1 411.2 329.1 C 397.4 329.1 405.3 330.6 391.5 331 C 377.8 331 385.6 331 371.9 330.2 C 358.1 328.6 366 328.2 352.2 326.3 C 338.5 324.4 346.3 326 332.6 324.9 C 318.8 323.7 326.7 323.1 312.9 323 C 299.1 322.9 307 322.2 293.2 324.7 C 279.5 327.2 287.3 329.7 273.6 330.2 C 259.8 330.7 267.7 326.3 253.9 326.2 C 240.2 326.1 248 328.1 234.3 329.8 C 220.5 331 228.4 331 214.6 331 C 200.8 330.8 208.7 329.9 194.9 329.2 C 181.2 328.4 189 328.3 175.3 329 C 161.5 329.6 169.4 331 155.6 331 C 141.9 330.1 149.7 327.1 136 326.5 C 122.2 325.9 130.1 329.3 116.3 329.3 C 102.5 329.3 110.4 326.4 96.6 326.4 C 82.9 326.4 90.7 328.5 77 329.3 C 63.2 330 71.1 328.9 57.3 328.7 C 43.6 328.5 51.4 328.7 37.7 328.7 C 23.9 328.8 29.4 328.1 18 328.9 C 6.6 329.7 9.6 330.3 5 331 C 5 331 5 331 5 331 C 5.4 329.2 5.4 330.3 6.2 325.8 C 7.1 321.2 6.9 327.7 7.5 318 C 8 308.3 8.4 312 7.8 298 C 7.1 284 6.6 292 5.6 278 C 5 264 5.2 272 5 258 C 5 244 5 252 5.2 238 C 8 224 12.1 232 13 218 C 13.9 204 10.3 212 7.9 198 C 5.5 184 7.1 192 6.1 178 C 5.1 164 5 172 5 158 C 6.3 144 8.1 152 9.7 138 C 11.4 124 10.7 132 9.7 118 C 8.6 104 8.3 112 6.7 98 C 5 84 5 92 5 78 C 5.6 64 6.6 72 8.3 58 C 10 44 11 52 9.8 38 C 8.6 24 6.1 22.8 5 18 C 5 13.2 6.6 28.8 6.6 24.3 C 6.6 19.8 5.5 8.7 5 5.1 C 5 5 5 13.4 5 14 C 9.6 14.5 6.6 9.4 18 6.6 Z" fill="none" stroke="#D4AD6A" stroke-width="8" stroke-linejoin="round" stroke-linecap="round"/></g>
  <g id="inner_dashed_border" clip-path="url(#clip_6)"><path d="M 30 47 C 30 41.5 34.5 37 40 37 L 920 37 C 925.5 37 930 41.5 930 47 L 930 298 C 930 303.5 925.5 308 920 308 L 40 308 C 34.5 308 30 303.5 30 298 Z" fill="none" stroke="#B05A3A" stroke-width="6" stroke-dasharray="18,12" stroke-linejoin="round" stroke-linecap="round"/></g>
</svg>