<svg xmlns="http://www.w3.org/2000/svg" viewBox="0 0 960 336" width="960" height="336">
  <defs><clipPath id="clip_8"><path d="M 18 6.8 C 29.4 5 23.9 7.5 37.7 8.5 C 51.4 9.6 43.6 10.4 57.3 9.8 C 71.1 9.2 63.2 7.5 77 6.7 C 90.7 5.9 82.9 8 96.6 7.4 C 110.4 6.8 102.5 5.4 116.3 5 C 130.1 5 122.2 6.3 136 6.3 C 149.7 6.3 141.9 5.4 155.6 5 C 169.4 5 161.5 5 175.3 5 C 189 5 181.2 5 194.9 5 C 208.7 7.6 200.8 11.1 214.6 12.3 C 228.4 13.6 220.5 11.2 234.3 8.6 C 248 6.1 240.2 5 253.9 5 C 267.7 5.2 259.8 6.3 273.6 9.3 C 287.3 12.4 279.5 14.1 293.2 13.7 C 307 13.3 299.1 11.2 312.9 8.2 C 326.7 5.3 318.8 6 332.6 5.3 C 346.3 5 338.5 5.2 352.2 6.3 C 366 7.5 358.1 8.9 371.9 8.5 C 385.6 8 377.8 5.9 391.5 5 C 405.3 5 397.4 5 411.2 6 C 425 10.5 417.1 18.2 430.9 18 C 444.6 17.7 436.7 5 450.5 5.3 C 464.3 7.2 456.4 23.5 470.2 23.4 C 483.9 23.3 476.1 9.5 489.8 5 C 503.6 5 495.7 9.6 509.5 10.6 C 523.3 11.5 515.4 9.7 529.1 7.7 C 542.9 5.8 535 5 548.8 5 C 562.6 5.7 554.7 8 568.5 9.6 C 582.2 11.3 574.4 11.3 588.1 9.7 C 601.9 8 594 5.6 607.8 5 C 621.5 5 613.7 7.9 627.4 7.9 C 641.2 7.9 633.3 5.8 647.1 5 C 660.9 5 653 5.5 666.8 5.5 C 680.5 5.5 672.7 5 686.4 5 C 700.2 5.4 692.3 6.5 706.1 6.5 C 719.8 6.5 712 5.5 725.7 5 C 739.5 5 731.6 5 745.4 5 C 759.2 5 751.3 5 765.1 5 C 778.8 5 771 5 784.7 5.1 C 798.5 5.5 790.6 5 804.4 6.2 C 818.1 7.4 810.3 5.8 824 8.6 C 837.8 11.4 829.9 14.7 843.7 14.2 C 857.5 13.7 849.6 9.2 863.4 7.2 C 877.1 5.3 869.3 7.9 883 8.7 C 896.8 9.6 888.9 10 902.7 9.7 C 916.4 9.4 908.6 8.1 922.3 7.9 C 936.1 7.7 938.3 5.7 942 9.1 C 945.7 12.4 928.2 16.7 932.8 17.5 C 937.3 18.3 947.2 13.6 955 11.3 C 955 9.1 955 8.8 955 11.1 C 955 13.4 955 8.6 955 18 C 953.3 27.4 950 24 950 38 C 950 52 953.3 44 955 58 C 955 72 955 64 955 78 C 953.5 92 951.1 84 950.7 98 C 950.4 112 955 104 953.9 118 C 952.6 132 948 124 947 138 C 946 152 948.7 144 950.9 158 C 953.2 172 952 164 953.4 178 C 954.8 192 955 184 955 198 C 954.5 212 953.3 204 952.1 218 C 950.9 232 951.5 224 951.6 238 C 951.7 252 951.2 244 952.4 258 C 953.6 272 955 264 955 278 C 954.2 292 950 284 950 298 C 950 312 955 314.9 955 318 C 944.6 321.1 935.4 308.7 920.4 306.9 C 905.5 305.1 903.5 306.6 912.3 312.9 C 921.2 319.1 935.3 318.3 945.7 324.7 C 955 331 950.2 328.8 942 331 C 933.8 331 936.1 331 922.3 331 C 908.6 329.8 916.4 329.6 902.7 327.6 C 888.9 325.6 896.8 325.5 883 325.3 C 869.3 325.1 877.1 325 863.4 327 C 849.6 329 857.5 331 843.7 331 C 829.9 330.7 837.8 326 824 326 C 810.3 326 818.1 330.7 804.4 331 C 790.6 331 798.5 328.2 784.7 326.8 C 771 325.5 778.8 325.6 765.1 327 C 751.3 328.5 759.2 330.9 745.4 331 C 731.6 331 739.5 327.8 725.7 327.3 C 712 326.7 719.8 329.1 706.1 329.4 C 692.3 329.7 700.2 328.9 686.4 328.1 C 672.7 327.4 680.5 327.6 666.8 327.3 C 653 327 660.9 326 647.1 327.3 C 633.3 328.6 641.2 329.7 627.4 331 C 613.7 331 621.5 331 607.8 331 C 594 329.3 601.9 326.2 588.1 326.2 C 574.4 326.2 582.2 331 568.5 331 C 554.7 329.9 562.6 323 548.8 323 C 535 323 542.9 328.2 529.1 331 C 515.4 331 523.3 331 509.5 331 C 495.7 331 503.6 331 489.8 331 C 476.1 331 483.9 331 470.2 331 C 456.4 331 464.3 331 450.5 331 C 436.7 330.6 444.6 330.3 430.9 329.9 C 417.1 329.4 425 331 411.2 329.8 C 397.4 328.7 405.3 326.9 391.5 326.6 C 377.8 326.4 385.6 328.7 371.9 329.1 C 358.1 329.4 366 326.9 352.2 327.6 C 338.5 328.2 346.3 329.8 332.6 331 C 318.8 331 326.7 331 312.9 331 C 299.1 331 307 331 293.2 331 C 279.5 330.2 287.3 328.6 273.6 328.6 C 259.8 328.6 267.7 331 253.9 331 C 240.2 330.7 248 329.3 234.3 327.8 C 220.5 326.3 228.4 327.3 214.6 326.7 C 200.8 326.1 208.7 324.5 194.9 326 C 181.2 327.5 189 331 175.3 331 C 161.5 329.9 169.4 323 155.6 323 C 141.9 323 149.7 328.2 136 331 C 122.2 331 130.1 331 116.3 331 C 102.5 330.9 110.4 330.7 96.6 330.7 C 82.9 330.7 90.7 330.9 77 331 C 63.2 331 71.1 331 57.3 331 C 43.6 331 51.4 331 37.7 331 C 23.9 330.6 29 329.8 18 329.8 C 7 329.8 8.4 330.9 6.3 331 C 5 331 9 331 12.1 330 C 15.3 316.3 17.3 296.2 15.2 292 C 13.1 287.8 9.8 315.9 6.2 318 C 5 320.1 5.4 312 5 298 C 5 284 5 292 5 278 C 5 264 5 272 5 258 C 5 244 5 252 5 238 C 6.7 224 8.1 232 9.8 218 C 11.4 204 10.2 212 9.8 198 C 9.4 184 9 192 8.6 178 C 8.2 164 9.8 172 8.6 158 C 7.3 144 6.2 152 5 138 C 5 124 5 132 5 118 C 6.5 104 7.2 112 9.3 98 C 11.4 84 12.5 92 11 78 C 9.5 64 6.6 72 5 58 C 5 44 5.2 52 6.5 38 C 7.8 24 9.2 25.9 8.6 18 C 8.1 10.1 5 18.6 5 15.3 C 16.4 12 41.2 5 41.2 8.5 C 41.2 15.6 13.1 36.2 5 35.6 C 5 35 6.6 16.3 18 6.8 Z"/></clipPath></defs>
  <g id="background"><path d="M 18 6.8 C 29.4 5 23.9 7.5 37.7 8.5 C 51.4 9.6 43.6 10.4 57.3 9.8 C 71.1 9.2 63.2 7.5 77 6.7 C 90.7 5.9 82.9 8 96.6 7.4 C 110.4 6.8 102.5 5.4 116.3 5 C 130.1 5 122.2 6.3 136 6.3 C 149.7 6.3 141.9 5.4 155.6 5 C 169.4 5 161.5 5 175.3 5 C 189 5 181.2 5 194.9 5 C 208.7 7.6 200.8 11.1 214.6 12.3 C 228.4 13.6 220.5 11.2 234.3 8.6 C 248 6.1 240.2 5 253.9 5 C 267.7 5.2 259.8 6.3 273.6 9.3 C 287.3 12.4 279.5 14.1 293.2 13.7 C 307 13.3 299.1 11.2 312.9 8.2 C 326.7 5.3 318.8 6 332.6 5.3 C 346.3 5 338.5 5.2 352.2 6.3 C 366 7.5 358.1 8.9 371.9 8.5 C 385.6 8 377.8 5.9 391.5 5 C 405.3 5 397.4 5 411.2 6 C 425 10.5 417.1 18.2 430.9 18 C 444.6 17.7 436.7 5 450.5 5.3 C 464.3 7.2 456.4 23.5 470.2 23.4 C 483.9 23.3 476.1 9.5 489.8 5 C 503.6 5 495.7 9.6 509.5 10.6 C 523.3 11.5 515.4 9.7 529.1 7.7 C 542.9 5.8 535 5 548.8 5 C 562.6 5.7 554.7 8 568.5 9.6 C 582.2 11.3 574.4 11.3 588.1 9.7 C 601.9 8 594 5.6 607.8 5 C 621.5 5 613.7 7.9 627.4 7.9 C 641.2 7.9 633.3 5.8 647.1 5 C 660.9 5 653 5.5 666.8 5.5 C 680.5 5.5 672.7 5 686.4 5 C 700.2 5.4 692.3 6.5 706.1 6.5 C 719.8 6.5 712 5.5 725.7 5 C 739.5 5 731.6 5 745.4 5 C 759.2 5 751.3 5 765.1 5 C 778.8 5 771 5 784.7 5.1 C 798.5 5.5 790.6 5 804.4 6.2 C 818.1 7.4 810.3 5.8 824 8.6 C 837.8 11.4 829.9 14.7 843.7 14.2 C 857.5 13.7 849.6 9.2 863.4 7.2 C 877.1 5.3 869.3 7.9 883 8.7 C 896.8 9.6 888.9 10 902.7 9.7 C 916.4 9.4 908.6 8.1 922.3 7.9 C 936.1 7.7 938.3 5.7 942 9.1 C 945.7 12.4 928.2 16.7 932.8 17.5 C 937.3 18.3 947.2 13.6 955 11.3 C 955 9.1 955 8.8 955 11.1 C 955 13.4 955 8.6 955 18 C 953.3 27.4 950 24 950 38 C 950 52 953.3 44 955 58 C 955 72 955 64 955 78 C 953.5 92 951.1 84 950.7 98 C 950.4 112 955 104 953.9 118 C 952.6 132 948 124 947 138 C 946 152 948.7 144 950.9 158 C 953.2 172 952 164 953.4 178 C 954.8 192 955 184 955 198 C 954.5 212 953.3 204 952.1 218 C 950.9 232 951.5 224 951.6 238 C 951.7 252 951.2 244 952.4 258 C 953.6 272 955 264 955 278 C 954.2 292 950 284 950 298 C 950 312 955 314.9 955 318 C 944.6 321.1 935.4 308.7 920.4 306.9 C 905.5 305.1 903.5 306.6 912.3 312.9 C 921.2 319.1 935.3 318.3 945.7 324.7 C 955 331 950.2 328.8 942 331 C 933.8 331 936.1 331 922.3 331 C 908.6 329.8 916.4 329.6 902.7 327.6 C 888.9 325.6 896.8 325.5 883 325.3 C 869.3 325.1 877.1 325 863.4 327 C 849.6 329 857.5 331 843.7 331 C 829.9 330.7 837.8 326 824 326 C 810.3 326 818.1 330.7 804.4 331 C 790.6 331 798.5 328.2 784.7 326.8 C 771 325.5 778.8 325.6 765.1 327 C 751.3 328.5 759.2 330.9 745.4 331 C 731.6 331 739.5 327.8 725.7 327.3 C 712 326.7 719.8 329.1 706.1 329.4 C 692.3 329.7 700.2 328.9 686.4 328.1 C 672.7 327.4 680.5 327.6 666.8 327.3 C 653 327 660.9 326 647.1 327.3 C 633.3 328.6 641.2 329.7 627.4 331 C 613.7 331 621.5 331 607.8 331 C 594 329.3 601.9 326.2 588.1 326.2 C 574.4 326.2 582.2 331 568.5 331 C 554.7 329.9 562.6 323 548.8 323 C 535 323 542.9 328.2 529.1 331 C 515.4 331 523.3 331 509.5 331 C 495.7 331 503.6 331 489.8 331 C 476.1 331 483.9 331 470.2 331 C 456.4 331 464.3 331 450.5 331 C 436.7 330.6 444.6 330.3 430.9 329.9 C 417.1 329.4 425 331 411.2 329.8 C 397.4 328.7 405.3 326.9 391.5 326.6 C 377.8 326.4 385.6 328.7 371.9 329.1 C 358.1 329.4 366 326.9 352.2 327.6 C 338.5 328.2 346.3 329.8 332.6 331 C 318.8 331 326.7 331 312.9 331 C 299.1 331 307 331 293.2 331 C 279.5 330.2 287.3 328.6 273.6 328.6 C 259.8 328.6 267.7 331 253.9 331 C 240.2 330.7 248 329.3 234.3 327.8 C 220.5 326.3 228.4 327.3 214.6 326.7 C 200.8 326.1 208.7 324.5 194.9 326 C 181.2 327.5 189 331 175.3 331 C 161.5 329.9 169.4 323 155.6 323 C 141.9 323 149.7 328.2 136 331 C 122.2 331 130.1 331 116.3 331 C 102.5 330.9 110.4 330.7 96.6 330.7 C 82.9 330.7 90.7 330.9 77 331 C 63.2 331 71.1 331 57.3 331 C 43.6 331 51.4 331 37.7 331 C 23.9 330.6 29 329.8 18 329.8 C 7 329.8 8.4 330.9 6.3 331 C 5 331 9 331 12.1 330 C 15.3 316.3 17.3 296.2 15.2 292 C 13.1 287.8 9.8 315.9 6.2 318 C 5 320.1 5.4 312 5 298 C 5 284 5 292 5 278 C 5 264 5 272 5 258 C 5 244 5 252 5 238 C 6.7 224 8.1 232 9.8 218 C 11.4 204 10.2 212 9.8 198 C 9.4 184 9 192 8.6 178 C 8.2 164 9.8 172 8.6 158 C 7.3 144 6.2 152 5 138 C 5 124 5 132 5 118 C 6.5 104 7.2 112 9.3 98 C 11.4 84 12.5 92 11 78 C 9.5 64 6.6 72 5 58 C 5 44 5.2 52 6.5 38 C 7.8 24 9.2 25.9 8.6 18 C 8.1 10.1 5 18.6 5 15.3 C 16.4 12 41.2 5 41.2 8.5 C 41.2 15.6 13.1 36.2 5 35.6 C 5 35 6.6 16.3 18 6.8 Z" fill="#F0E4C8"/></g>
  <g id="outer_border"><path d="M 18 6.8 C 29.4 5 23.9 7.5 37.7 8.5 C 51.4 9.6 43.6 10.4 57.3 9.8 C 71.1 9.2 63.2 7.5 77 6.7 C 90.7 5.9 82.9 8 96.6 7.4 C 110.4 6.8 102.5 5.4 116.3 5 C 130.1 5 122.2 6.3 136 6.3 C 149.7 6.3 141.9 5.4 155.6 5 C 169.4 5 161.5 5 175.3 5 C 189 5 181.2 5 194.9 5 C 208.7 7.6 200.8 11.1 214.6 12.3 C 228.4 13.6 220.5 11.2 234.3 8.6 C 248 6.1 240.2 5 253.9 5 C 267.7 5.2 259.8 6.3 273.6 9.3 C 287.3 12.4 279.5 14.1 293.2 13.7 C 307 13.3 299.1 11.2 312.9 8.2 C 326.7 5.3 318.8 6 332.6 5.3 C 346.3 5 338.5 5.2 352.2 6.3 C 366 7.5 358.1 8.9 371.9 8.5 C 385.6 8 377.8 5.9 391.5 5 C 405.3 5 397.4 5 411.2 6 C 425 10.5 417.1 18.2 430.9 18 C 444.6 17.7 436.7 5 450.5 5.3 C 464.3 7.2 456.4 23.5 470.2 23.4 C 483.9 23.3 476.1 9.5 489.8 5 C 503.6 5 495.7 9.6 509.5 10.6 C 523.3 11.5 515.4 9.7 529.1 7.7 C 542.9 5.8 535 5 548.8 5 C 562.6 5.7 554.7 8 568.5 9.6 C 582.2 11.3 574.4 11.3 588.1 9.7 C 601.9 8 594 5.6 607.8 5 C 621.5 5 613.7 7.9 627.4 7.9 C 641.2 7.9 633.3 5.8 647.1 5 C 660.9 5 653 5.5 666.8 5.5 C 680.5 5.5 672.7 5 686.4 5 C 700.2 5.4 692.3 6.5 706.1 6.5 C 719.8 6.5 712 5.5 725.7 5 C 739.5 5 731.6 5 745.4 5 C 759.2 5 751.3 5 765.1 5 C 778.8 5 771 5 784.7 5.1 C 798.5 5.5 790.6 5 804.4 6.2 C 818.1 7.4 810.3 5.8 824 8.6 C 837.8 11.4 829.9 14.7 843.7 14.2 C 857.5 13.7 849.6 9.2 863.4 7.2 C 877.1 5.3 869.3 7.9 883 8.7 C 896.8 9.6 888.9 10 902.7 9.7 C 916.4 9.4 908.6 8.1 922.3 7.9 C 936.1 7.7 938.3 5.7 942 9.1 C 945.7 12.4 928.2 16.7 932.8 17.5 C 937.3 18.3 947.2 13.6 955 11.3 C 955 9.1 955 8.8 955 11.1 C 955 13.4 955 8.6 955 18 C 953.3 27.4 950 24 950 38 C 950 52 953.3 44 955 58 C 955 72 955 64 955 78 C 953.5 92 951.1 84 950.7 98 C 950.4 112 955 104 953.9 118 C 952.6 132 948 124 947 138 C 946 152 948.7 144 950.9 158 C 953.2 172 952 164 953.4 178 C 954.8 192 955 184 955 198 C 954.5 212 953.3 204 952.1 218 C 950.9 232 951.5 224 951.6 238 C 951.7 252 951.2 244 952.4 258 C 953.6 272 955 264 955 278 C 954.2 292 950 284 950 298 C 950 312 955 314.9 955 318 C 944.6 321.1 935.4 308.7 920.4 306.9 C 905.5 305.1 903.5 306.6 912.3 312.9 C 921.2 319.1 935.3 318.3 945.7 324.7 C 955 331 950.2 328.8 942 331 C 933.8 331 936.1 331 922.3 331 C 908.6 329.8 916.4 329.6 902.7 327.6 C 888.9 325.6 896.8 325.5 883 325.3 C 869.3 325.1 877.1 325 863.4 327 C 849.6 329 857.5 331 843.7 331 C 829.9 330.7 837.8 326 824 326 C 810.3 326 818.1 330.7 804.4 331 C 790.6 331 798.5 328.2 784.7 326.8 C 771 325.5 778.8 325.6 765.1 327 C 751.3 328.5 759.2 330.9 745.4 331 C 731.6 331 739.5 327.8 725.7 327.3 C 712 326.7 719.8 329.1 706.1 329.4 C 692.3 329.7 700.2 328.9 686.4 328.1 C 672.7 327.4 680.5 327.6 666.8 327.3 C 653 327 660.9 326 647.1 327.3 C 633.3 328.6 641.2 329.7 627.4 331 C 613.7 331 621.5 331 607.8 331 C 594 329.3 601.9 326.2 588.1 326.2 C 574.4 326.2 582.2 331 568.5 331 C 554.7 329.9 562.6 323 548.8 323 C 535 323 542.9 328.2 529.1 331 C 515.4 331 523.3 331 509.5 331 C 495.7 331 503.6 331 489.8 331 C 476.1 331 483.9 331 470.2 331 C 456.4 331 464.3 331 450.5 331 C 436.7 330.6 444.6 330.3 430.9 329.9 C 417.1 329.4 425 331 411.2 329.8 C 397.4 328.7 405.3 326.9 391.5 326.6 C 377.8 326.4 385.6 328.7 371.9 329.1 C 358.1 329.4 366 326.9 352.2 327.6 C 338.5 328.2 346.3 329.8 332.6 331 C 318.8 331 326.7 331 312.9 331 C 299.1 331 307 331 293.2 331 C 279.5 330.2 287.3 328.6 273.6 328.6 C 259.8 328.6 267.7 331 253.9 331 C 240.2 330.7 248 329.3 234.3 327.8 C 220.5 326.3 228.4 327.3 214.6 326.7 C 200.8 326.1 208.7 324.5 194.9 326 C 181.2 327.5 189 331 175.3 331 C 161.5 329.9 169.4 323 155.6 323 C 141.9 323 149.7 328.2 136 331 C 122.2 331 130.1 331 116.3 331 C 102.5 330.9 110.4 330.7 96.6 330.7 C 82.9 330.7 90.7 330.9 77 331 C 63.2 331 71.1 331 57.3 331 C 43.6 331 51.4 331 37.7 331 C 23.9 330.6 29 329.8 18 329.8 C 7 329.8 8.4 330.9 6.3 331 C 5 331 9 331 12.1 330 C 15.3 316.3 17.3 296.2 15.2 292 C 13.1 287.8 9.8 315.9 6.2 318 C 5 320.1 5.4 312 5 298 C 5 284 5 292 5 278 C 5 264 5 272 5 258 C 5 244 5 252 5 238 C 6.7 224 8.1 232 9.8 218 C 11.4 204 10.2 212 9.8 198 C 9.4 184 9 192 8.6 178 C 8.2 164 9.8 172 8.6 158 C 7.3 144 6.2 152 5 138 C 5 124 5 132 5 118 C 6.5 104 7.2 112 9.3 98 C 11.4 84 12.5 92 11 78 C 9.5 64 6.6 72 5 58 C 5 44 5.2 52 6.5 38 C 7.8 24 9.2 25.9 8.6 18 C 8.1 10.1 5 18.6 5 15.3 C 16.4 12 41.2 5 41.2 8.5 C 41.2 15.6 13.1 36.2 5 35.6 C 5 35 6.6 16.3 18 6.8 Z" fill="none" stroke="#D4AD6A" stroke-width="8" stroke-linejoin="round" stroke-linecap="round"/></g>
  <g id="inner_dashed_border" clip-path="url(#clip_8)"><path d="M 30 47 C 30 41.5 34.5 37 40 37 L 920 37 C 925.5 37 930 41.5 930 47 L 930 298 C 930 303.5 925.5 308 920 308 L 40 308 C 34.5 308 30 303.5 30 298 Z" fill="none" stroke="#B05A3A" stroke-width="6" stroke-dasharray="18,12" stroke-linejoin="round" stroke-linecap="round"/></g>
</svg>