<svg xmlns="http://www.w3.org/2000/svg" viewBox="0 0 960 336" width="960" height="336">
  <defs><clipPath id="clip_1"><path d="M 18 9.4 C 25.6 5 23.9 9.2 37.7 9.3 C 51.4 9.3 43.6 11 57.3 9.5 C 71.1 8 63.2 5.1 77 5 C 90.7 5 82.9 7.6 96.6 9 C 110.4 10.5 102.5 10.6 116.3 9.2 C 130.1 7.8 122.2 5.2 136 5 C 149.7 5 141.9 6 155.6 8.6 C 169.4 11.2 161.5 13.7 175.3 12.5 C 189 11.2 181.2 6.7 194.9 5 C 208.7 5 200.8 7.5 214.6 7.5 C 228.4 7.5 220.5 5.4 234.3 5 C 248 5 240.2 5 253.9 6.3 C 267.7 7.7 259.8 6.6 273.6 9 C 287.3 11.4 279.5 14.6 293.2 13.3 C 307 12 299.1 8.2 312.9 5.3 C 326.7 5 318.8 5.1 332.6 5 C 346.3 5 338.5 5 352.2 5 C 366 10.3 358.1 20 371.9 20 C 385.6 20 377.8 8.9 391.5 5 C 405.3 5 397.4 8.1 411.2 8.8 C 425 9.6 417.1 8 430.9 7.2 C 444.6 6.3 436.7 5.8 450.5 6.3 C 464.3 6.8 456.4 8.2 470.2 8.5 C 483.9 8.9 476.1 7.9 489.8 7.4 C 503.6 6.8 495.7 6.4 509.5 7 C 523.3 7.5 515.4 9.6 529.1 8.9 C 542.9 8.3 535 5.8 548.8 5 C 562.6 5 554.7 6.8 568.5 6.8 C 582.2 6.8 574.4 5.6 588.1 5 C 601.9 5 594 5 607.8 5 C 621.5 6.5 613.7 9.2 627.4 9.2 C 641.2 9.2 633.3 6.5 647.1 5 C 660.9 5 653 5 666.8 5 C 680.5 5.6 672.7 5 686.4 6.6 C 700.2 10.3 692.3 15.5 706.1 15.6 C 719.8 15.8 712 9.9 725.7 7 C 739.5 5 731.6 7.8 745.4 7.4 C 759.2 7.1 751.3 5.9 765.1 6 C 778.8 6.1 771 7.5 784.7 7.6 C 798.5 7.8 790.6 6.3 804.4 6.4 C 818.1 6.5 810.3 8.4 824 7.9 C 837.8 7.4 829.9 5.5 843.7 5 C 857.5 5 849.6 5.4 863.4 6.5 C 877.1 7.7 869.3 7.4 883 8.4 C 896.8 9.3 888.9 9.1 902.7 9.3 C 916.4 9.5 908.6 10.1 922.3 8.9 C 936.1 7.6 930.6 5.5 942 5.8 C 953.4 6 950.5 8.8 955 9.6 C 955 10.4 955 5 955 8 C 955 11.4 955 15.9 955 19.4 C 954 22.9 952.3 11.5 952.2 18 C 952.1 24.5 954.3 24 954.7 38 C 955 52 955 44 953.4 58 C 950.7 72 946.5 64 947 78 C 947.5 92 953.1 84 955 98 C 955 112 952.3 104 952.3 118 C 952.3 132 954.3 124 955 138 C 955 152 955 144 954.4 158 C 953.3 172 951.8 164 951.9 178 C 951.9 192 954.9 184 954.6 198 C 954.3 212 950.8 204 950.9 218 C 951.1 232 955 224 955 238 C 953.6 252 949.4 244 947 258 C 944.6 272 946.8 264 948 278 C 949.3 292 950.3 284 950.5 298 C 950.7 312 947.1 308.3 948.6 318 C 950.2 327.7 952.8 321.1 955 325.7 C 955 330.2 955 331 955 331 C 950.7 328.7 947.2 319.2 942.7 319.2 C 938.1 319.2 949.1 328.9 942 331 C 934.9 331 936.1 326 922.3 325.2 C 908.6 324.3 916.4 327.8 902.7 328.6 C 888.9 329.3 896.8 328.6 883 327.3 C 869.3 326.1 877.1 324.2 863.4 324.9 C 849.6 325.6 857.5 327.4 843.7 329.5 C 829.9 331 837.8 330.8 824 330.7 C 810.3 330.6 818.1 329 804.4 329.1 C 790.6 329.2 798.5 330.3 784.7 331 C 771 331 778.8 331 765.1 331 C 751.3 331 759.2 331 745.4 331 C 731.6 328.2 739.5 324.2 725.7 323 C 712 321.8 719.8 326 706.1 327.5 C 692.3 329 700.2 328 686.4 327.2 C 672.7 326.5 680.5 325.2 666.8 325.5 C 653 325.8 660.9 326.3 647.1 328.2 C 633.3 330.1 641.2 331 627.4 331 C 613.7 330.7 621.5 327.7 607.8 327.3 C 594 326.8 601.9 329.2 588.1 329.7 C 574.4 330.1 582.2 329.5 568.5 328.6 C 554.7 327.6 562.6 326.1 548.8 327 C 535 327.8 542.9 329.6 529.1 331 C 515.4 331 523.3 331 509.5 331 C 495.7 331 503.6 331 489.8 331 C 476.1 331 483.9 331 470.2 331 C 456.4 331 464.3 331 450.5 331 C 436.7 329.3 444.6 328.8 430.9 326 C 417.1 323.2 425 322.6 411.2 323 C 397.4 323.4 405.3 326.1 391.5 327.3 C 377.8 328.5 385.6 327.9 371.9 326.4 C 358.1 324.9 366 322.5 352.2 323 C 338.5 323.5 346.3 325.8 332.6 327.9 C 318.8 329.9 326.7 329.4 312.9 328.9 C 299.1 328.4 307 325.7 293.2 326.4 C 279.5 327.1 287.3 329.4 273.6 331 C 259.8 331 267.7 331 253.9 331 C 240.2 331 248 331 234.3 331 C 220.5 328.4 228.4 323.7 214.6 323.7 C 200.8 323.7 208.7 329.4 194.9 331 C 181.2 331 189 328.3 175.3 328.3 C 161.5 328.3 169.4 331 155.6 331 C 141.9 330.8 149.7 327.8 136 327.8 C 122.2 327.8 130.1 331 116.3 331 C 102.5 329.3 110.4 323 96.6 323 C 82.9 323 90.7 328.2 77 331 C 63.2 331 71.1 331 57.3 331 C 43.6 331 51.4 331 37.7 331 C 23.9 330.5 22.6 331 18 329.5 C 13.4 326 28.9 325.8 24.4 320.7 C 19.8 315.7 11.8 313.6 5 315.1 C 5 316.6 5 324.1 5 325.1 C 5 326.1 5 327.5 5 318 C 6.3 308.5 7 312 8.6 298 C 10.2 284 10.7 292 9.7 278 C 8.7 264 7.4 272 5.8 258 C 5 244 5.3 252 5 238 C 5 224 5 232 5 218 C 5 204 5 212 5 198 C 6.7 184 8.4 192 9.9 178 C 11.3 164 8 172 9.1 158 C 10.2 144 13.3 152 13 138 C 12.7 124 10 132 8.3 118 C 6.6 104 9.4 112 8.2 98 C 7 84 6.1 92 5 78 C 5 64 5 72 5 58 C 6.2 44 7.9 52 8.6 38 C 9.2 24 5 23.6 6.8 18 C 8.5 12.4 7.8 21 13.6 22.1 C 19.4 23.1 22.5 20.1 23.3 21 C 24.1 22 17.7 28.9 15.9 24.8 C 14.1 20.8 10.4 14.8 18 9.4 Z"/></clipPath></defs>
  <g id="background"><path d="M 18 9.4 C 25.6 5 23.9 9.2 37.7 9.3 C 51.4 9.3 43.6 11 57.3 9.5 C 71.1 8 63.2 5.1 77 5 C 90.7 5 82.9 7.6 96.6 9 C 110.4 10.5 102.5 10.6 116.3 9.2 C 130.1 7.8 122.2 5.2 136 5 C 149.7 5 141.9 6 155.6 8.6 C 169.4 11.2 161.5 13.7 175.3 12.5 C 189 11.2 181.2 6.7 194.9 5 C 208.7 5 200.8 7.5 214.6 7.5 C 228.4 7.5 220.5 5.4 234.3 5 C 248 5 240.2 5 253.9 6.3 C 267.7 7.7 259.8 6.6 273.6 9 C 287.3 11.4 279.5 14.6 293.2 13.3 C 307 12 299.1 8.2 312.9 5.3 C 326.7 5 318.8 5.1 332.6 5 C 346.3 5 338.5 5 352.2 5 C 366 10.3 358.1 20 371.9 20 C 385.6 20 377.8 8.9 391.5 5 C 405.3 5 397.4 8.1 411.2 8.8 C 425 9.6 417.1 8 430.9 7.2 C 444.6 6.3 436.7 5.8 450.5 6.3 C 464.3 6.8 456.4 8.2 470.2 8.5 C 483.9 8.9 476.1 7.9 489.8 7.4 C 503.6 6.8 495.7 6.4 509.5 7 C 523.3 7.5 515.4 9.6 529.1 8.9 C 542.9 8.3 535 5.8 548.8 5 C 562.6 5 554.7 6.8 568.5 6.8 C 582.2 6.8 574.4 5.6 588.1 5 C 601.9 5 594 5 607.8 5 C 621.5 6.5 613.7 9.2 627.4 9.2 C 641.2 9.2 633.3 6.5 647.1 5 C 660.9 5 653 5 666.8 5 C 680.5 5.6 672.7 5 686.4 6.6 C 700.2 10.3 692.3 15.5 706.1 15.6 C 719.8 15.8 712 9.9 725.7 7 C 739.5 5 731.6 7.8 745.4 7.4 C 759.2 7.1 751.3 5.9 765.1 6 C 778.8 6.1 771 7.5 784.7 7.6 C 798.5 7.8 790.6 6.3 804.4 6.4 C 818.1 6.5 810.3 8.4 824 7.9 C 837.8 7.4 829.9 5.5 843.7 5 C 857.5 5 849.6 5.4 863.4 6.5 C 877.1 7.7 869.3 7.4 883 8.4 C 896.8 9.3 888.9 9.1 902.7 9.3 C 916.4 9.5 908.6 10.1 922.3 8.9 C 936.1 7.6 930.6 5.5 942 5.8 C 953.4 6 950.5 8.8 955 9.6 C 955 10.4 955 5 955 8 C 955 11.4 955 15.9 955 19.4 C 954 22.9 952.3 11.5 952.2 18 C 952.1 24.5 954.3 24 954.7 38 C 955 52 955 44 953.4 58 C 950.7 72 946.5 64 947 78 C 947.5 92 953.1 84 955 98 C 955 112 952.3 104 952.3 118 C 952.3 132 954.3 124 955 138 C 955 152 955 144 954.4 158 C 953.3 172 951.8 164 951.9 178 C 951.9 192 954.9 184 954.6 198 C 954.3 212 950.8 204 950.9 218 C 951.1 232 955 224 955 238 C 953.6 252 949.4 244 947 258 C 944.6 272 946.8 264 948 278 C 949.3 292 950.3 284 950.5 298 C 950.7 312 947.1 308.3 948.6 318 C 950.2 327.7 952.8 321.1 955 325.7 C 955 330.2 955 331 955 331 C 950.7 328.7 947.2 319.2 942.7 319.2 C 938.1 319.2 949.1 328.9 942 331 C 934.9 331 936.1 326 922.3 325.2 C 908.6 324.3 916.4 327.8 902.7 328.6 C 888.9 329.3 896.8 328.6 883 327.3 C 869.3 326.1 877.1 324.2 863.4 324.9 C 849.6 325.6 857.5 327.4 843.7 329.5 C 829.9 331 837.8 330.8 824 330.7 C 810.3 330.6 818.1 329 804.4 329.1 C 790.6 329.2 798.5 330.3 784.7 331 C 771 331 778.8 331 765.1 331 C 751.3 331 759.2 331 745.4 331 C 731.6 328.2 739.5 324.2 725.7 323 C 712 321.8 719.8 326 706.1 327.5 C 692.3 329 700.2 328 686.4 327.2 C 672.7 326.5 680.5 325.2 666.8 325.5 C 653 325.8 660.9 326.3 647.1 328.2 C 633.3 330.1 641.2 331 627.4 331 C 613.7 330.7 621.5 327.7 607.8 327.3 C 594 326.8 601.9 329.2 588.1 329.7 C 574.4 330.1 582.2 329.5 568.5 328.6 C 554.7 327.6 562.6 326.1 548.8 327 C 535 327.8 542.9 329.6 529.1 331 C 515.4 331 523.3 331 509.5 331 C 495.7 331 503.6 331 489.8 331 C 476.1 331 483.9 331 470.2 331 C 456.4 331 464.3 331 450.5 331 C 436.7 329.3 444.6 328.8 430.9 326 C 417.1 323.2 425 322.6 411.2 323 C 397.4 323.4 405.3 326.1 391.5 327.3 C 377.8 328.5 385.6 327.9 371.9 326.4 C 358.1 324.9 366 322.5 352.2 323 C 338.5 323.5 346.3 325.8 332.6 327.9 C 318.8 329.9 326.7 329.4 312.9 328.9 C 299.1 328.4 307 325.7 293.2 326.4 C 279.5 327.1 287.3 329.4 273.6 331 C 259.8 331 267.7 331 253.9 331 C 240.2 331 248 331 234.3 331 C 220.5 328.4 228.4 323.7 214.6 323.7 C 200.8 323.7 208.7 329.4 194.9 331 C 181.2 331 189 328.3 175.3 328.3 C 161.5 328.3 169.4 331 155.6 331 C 141.9 330.8 149.7 327.8 136 327.8 C 122.2 327.8 130.1 331 116.3 331 C 102.5 329.3 110.4 323 96.6 323 C 82.9 323 90.7 328.2 77 331 C 63.2 331 71.1 331 57.3 331 C 43.6 331 51.4 331 37.7 331 C 23.9 330.5 22.6 331 18 329.5 C 13.4 326 28.9 325.8 24.4 320.7 C 19.8 315.7 11.8 313.6 5 315.1 C 5 316.6 5 324.1 5 325.1 C 5 326.1 5 327.5 5 318 C 6.3 308.5 7 312 8.6 298 C 10.2 284 10.7 292 9.7 278 C 8.7 264 7.4 272 5.8 258 C 5 244 5.3 252 5 238 C 5 224 5 232 5 218 C 5 204 5 212 5 198 C 6.7 184 8.4 192 9.9 178 C 11.3 164 8 172 9.1 158 C 10.2 144 13.3 152 13 138 C 12.7 124 10 132 8.3 118 C 6.6 104 9.4 112 8.2 98 C 7 84 6.1 92 5 78 C 5 64 5 72 5 58 C 6.2 44 7.9 52 8.6 38 C 9.2 24 5 23.6 6.8 18 C 8.5 12.4 7.8 21 13.6 22.1 C 19.4 23.1 22.5 20.1 23.3 21 C 24.1 22 17.7 28.9 15.9 24.8 C 14.1 20.8 10.4 14.8 18 9.4 Z" fill="#F0E4C8"/></g>
  <g id="outer_border"><path d="M 18 9.4 C 25.6 5 23.9 9.2 37.7 9.3 C 51.4 9.3 43.6 11 57.3 9.5 C 71.1 8 63.2 5.1 77 5 C 90.7 5 82.9 7.6 96.6 9 C 110.4 10.5 102.5 10.6 116.3 9.2 C 130.1 7.8 122.2 5.2 136 5 C 149.7 5 141.9 6 155.6 8.6 C 169.4 11.2 161.5 13.7 175.3 12.5 C 189 11.2 181.2 6.7 194.9 5 C 208.7 5 200.8 7.5 214.6 7.5 C 228.4 7.5 220.5 5.4 234.3 5 C 248 5 240.2 5 253.9 6.3 C 267.7 7.7 259.8 6.6 273.6 9 C 287.3 11.4 279.5 14.6 293.2 13.3 C 307 12 299.1 8.2 312.9 5.3 C 326.7 5 318.8 5.1 332.6 5 C 346.3 5 338.5 5 352.2 5 C 366 10.3 358.1 20 371.9 20 C 385.6 20 377.8 8.9 391.5 5 C 405.3 5 397.4 8.1 411.2 8.8 C 425 9.6 417.1 8 430.9 7.2 C 444.6 6.3 436.7 5.8 450.5 6.3 C 464.3 6.8 456.4 8.2 470.2 8.5 C 483.9 8.9 476.1 7.9 489.8 7.4 C 503.6 6.8 495.7 6.4 509.5 7 C 523.3 7.5 515.4 9.6 529.1 8.9 C 542.9 8.3 535 5.8 548.8 5 C 562.6 5 554.7 6.8 568.5 6.8 C 582.2 6.8 574.4 5.6 588.1 5 C 601.9 5 594 5 607.8 5 C 621.5 6.5 613.7 9.2 627.4 9.2 C 641.2 9.2 633.3 6.5 647.1 5 C 660.9 5 653 5 666.8 5 C 680.5 5.6 672.7 5 686.4 6.6 C 700.2 10.3 692.3 15.5 706.1 15.6 C 719.8 15.8 712 9.9 725.7 7 C 739.5 5 731.6 7.8 745.4 7.4 C 759.2 7.1 751.3 5.9 765.1 6 C 778.8 6.1 771 7.5 784.7 7.6 C 798.5 7.8 790.6 6.3 804.4 6.4 C 818.1 6.5 810.3 8.4 824 7.9 C 837.8 7.4 829.9 5.5 843.7 5 C 857.5 5 849.6 5.4 863.4 6.5 C 877.1 7.7 869.3 7.4 883 8.4 C 896.8 9.3 888.9 9.1 902.7 9.3 C 916.4 9.5 908.6 10.1 922.3 8.9 C 936.1 7.6 930.6 5.5 942 5.8 C 953.4 6 950.5 8.8 955 9.6 C 955 10.4 955 5 955 8 C 955 11.4 955 15.9 955 19.4 C 954 22.9 952.3 11.5 952.2 18 C 952.1 24.5 954.3 24 954.7 38 C 955 52 955 44 953.4 58 C 950.7 72 946.5 64 947 78 C 947.5 92 953.1 84 955 98 C 955 112 952.3 104 952.3 118 C 952.3 132 954.3 124 955 138 C 955 152 955 144 954.4 158 C 953.3 172 951.8 164 951.9 178 C 951.9 192 954.9 184 954.6 198 C 954.3 212 950.8 204 950.9 218 C 951.1 232 955 224 955 238 C 953.6 252 949.4 244 947 258 C 944.6 272 946.8 264 948 278 C 949.3 292 950.3 284 950.5 298 C 950.7 312 947.1 308.3 948.6 318 C 950.2 327.7 952.8 321.1 955 325.7 C 955 330.2 955 331 955 331 C 950.7 328.7 947.2 319.2 942.7 319.2 C 938.1 319.2 949.1 328.9 942 331 C 934.9 331 936.1 326 922.3 325.2 C 908.6 324.3 916.4 327.8 902.7 328.6 C 888.9 329.3 896.8 328.6 883 327.3 C 869.3 326.1 877.1 324.2 863.4 324.9 C 849.6 325.6 857.5 327.4 843.7 329.5 C 829.9 331 837.8 330.8 824 330.7 C 810.3 330.6 818.1 329 804.4 329.1 C 790.6 329.2 798.5 330.3 784.7 331 C 771 331 778.8 331 765.1 331 C 751.3 331 759.2 331 745.4 331 C 731.6 328.2 739.5 324.2 725.7 323 C 712 321.8 719.8 326 706.1 327.5 C 692.3 329 700.2 328 686.4 327.2 C 672.7 326.5 680.5 325.2 666.8 325.5 C 653 325.8 660.9 326.3 647.1 328.2 C 633.3 330.1 641.2 331 627.4 331 C 613.7 330.7 621.5 327.7 607.8 327.3 C 594 326.8 601.9 329.2 588.1 329.7 C 574.4 330.1 582.2 329.5 568.5 328.6 C 554.7 327.6 562.6 326.1 548.8 327 C 535 327.8 542.9 329.6 529.1 331 C 515.4 331 523.3 331 509.5 331 C 495.7 331 503.6 331 489.8 331 C 476.1 331 483.9 331 470.2 331 C 456.4 331 464.3 331 450.5 331 C 436.7 329.3 444.6 328.8 430.9 326 C 417.1 323.2 425 322.6 411.2 323 C 397.4 323.4 405.3 326.1 391.5 327.3 C 377.8 328.5 385.6 327.9 371.9 326.4 C 358.1 324.9 366 322.5 352.2 323 C 338.5 323.5 346.3 325.8 332.6 327.9 C 318.8 329.9 326.7 329.4 312.9 328.9 C 299.1 328.4 307 325.7 293.2 326.4 C 279.5 327.1 287.3 329.4 273.6 331 C 259.8 331 267.7 331 253.9 331 C 240.2 331 248 331 234.3 331 C 220.5 328.4 228.4 323.7 214.6 323.7 C 200.8 323.7 208.7 329.4 194.9 331 C 181.2 331 189 328.3 175.3 328.3 C 161.5 328.3 169.4 331 155.6 331 C 141.9 330.8 149.7 327.8 136 327.8 C 122.2 327.8 130.1 331 116.3 331 C 102.5 329.3 110.4 323 96.6 323 C 82.9 323 90.7 328.2 77 331 C 63.2 331 71.1 331 57.3 331 C 43.6 331 51.4 331 37.7 331 C 23.9 330.5 22.6 331 18 329.5 C 13.4 326 28.9 325.8 24.4 320.7 C 19.8 315.7 11.8 313.6 5 315.1 C 5 316.6 5 324.1 5 325.1 C 5 326.1 5 327.5 5 318 C 6.3 308.5 7 312 8.6 298 C 10.2 284 10.7 292 9.7 278 C 8.7 264 7.4 272 5.8 258 C 5 244 5.3 252 5 238 C 5 224 5 232 5 218 C 5 204 5 212 5 198 C 6.7 184 8.4 192 9.9 178 C 11.3 164 8 172 9.1 158 C 10.2 144 13.3 152 13 138 C 12.7 124 10 132 8.3 118 C 6.6 104 9.4 112 8.2 98 C 7 84 6.1 92 5 78 C 5 64 5 72 5 58 C 6.2 44 7.9 52 8.6 38 C 9.2 24 5 23.6 6.8 18 C 8.5 12.4 7.8 21 13.6 22.1 C 19.4 23.1 22.5 20.1 23.3 21 C 24.1 22 17.7 28.9 15.9 24.8 C 14.1 20.8 10.4 14.8 18 9.4 Z" fill="none" stroke="#D4AD6A" stroke-width="8" stroke-linejoin="round" stroke-linecap="round"/></g>
  <g id="inner_dashed_border" clip-path="url(#clip_1)"><path d="M 30 47 C 30 41.5 34.5 37 40 37 L 920 37 C 925.5 37 930 41.5 930 47 L 930 298 C 930 303.5 925.5 308 920 308 L 40 308 C 34.5 308 30 303.5 30 298 Z" fill="none" stroke="#B05A3A" stroke-width="6" stroke-dasharray="18,12" stroke-linejoin="round" stroke-linecap="round"/></g>
</svg>